<mxfile host="app.diagrams.net" agent="Mozilla/5.0 (Windows NT 10.0; Win64; x64) AppleWebKit/537.36 (KHTML, like Gecko) Chrome/134.0.0.0 YaBrowser/25.4.0.0 Safari/537.36" version="27.1.4">
  <diagram name="Страница — 1" id="4Jaieu8ahvF6Q0Gi1g9R">
    <mxGraphModel dx="2613" dy="2504" grid="1" gridSize="10" guides="1" tooltips="1" connect="1" arrows="1" fold="1" page="1" pageScale="1" pageWidth="827" pageHeight="1169" math="0" shadow="0">
      <root>
        <mxCell id="0" />
        <mxCell id="1" parent="0" />
        <mxCell id="FgYqGhc_kZCPzOwcQ5mJ-11" value="" style="shape=image;verticalLabelPosition=bottom;labelBackgroundColor=default;verticalAlign=top;aspect=fixed;imageAspect=0;image=data:image/png,iVBORw0KGgoAAAANSUhEUgAAA+MAAAK8CAIAAAALSfkRAAAgAElEQVR4Aey9v87szFI+6s0RGTvwjhCpBfpFCCQj0hNhNiKfFAI+aRICkAgmJWEuADEfQqRzAww62QmcIjQ34DvwJRzJR3vVems9u/qPe8Zju20/b7BWj11dXf1UdfXjdtsuCv4RASJABIgAESACRIAIEAEiQASIABEgAkSACBABIkAEiAARIAKvIfD/bPPv7//+77Wff/VXf7XNTtBqIvADgaqqNKT/9V//9ccJlojAZhH453/+Z43qP/uzP9tsP2g4EVgNgX/4h3/QQfQXf/EXq9nBhhdB4Je//KW6+0dh2Obfzz//rH346aefttkJWk0EfiDwp3/6pxrS//u///vjBEtEYLMI/Pd//7dG9a9//evN9oOGE4HVEPjP//xPHUR/+7d/u5odbHgRBH71q1+pu38UFmn6842QqX8eU2pcFQEy9VXhZ+OzIECmPgusVHokBMjUj+TtgUz9UO5mZzeGAJn6xhxGcxMQIFNPAIkiRCCGAJl6DJ3dnSNT351L2aEdIUCmviNnsivfESBTZygQgYkIkKlPBHBb1cnUt+UvWnssBMjUj+XvY/SWTP0YfmYvZ0SATH1GcPNTTaaen09oERH4QoBM/QsJ/r8fBMjU9+NL9mQlBMjUVwJ+nWbJ1NfBna0SgRQEyNRTUKLMthAgU9+Wv2hthgiQqWfolPlMIlOfD1tqJgJTESBTn4og6+eHAJl6fj6hRRtDgEx9Yw6bZi6Z+jT8WJsIzIkAmfqc6FL3OgiQqa+DO1vdEQJk6jty5nhXyNTHMaIEEVgLATL1tZBnu/MhQKY+H7bUfBAEyNQP4mjpJpn6odzNzm4MATL1jTmM5iYgQKaeABJFiEAMATL1GDq7O0emvjuXskM7QoBMfUfOZFe+I0CmzlAgAhMRIFOfCOC2qpOpb8tftPZYCJCpH8vfx+gtmfox/MxezogAmfqM4Oanmkw9P5/QIiLwhQCZ+hcS/H8/CJCp78eX7MlKCJCprwT8Os2Sqa+DO1slAikIkKmnoESZbSFApr4tf9HaDBEgU8/QKfOZRKY+H7bUTASmIkCmPhVB1s8PATL1/HxCizaGAJn6xhw2zVwy9Wn4sTYRmBMBMvU50aXudRAgU18Hd7a6IwTI1HfkzPGukKmPY0QJIrAWAmTqayHPdudDgEx9Pmyp+SAIkKkfxNHSTTL1Q7mbnd0YAmTqG3MYzU1AgEw9ASSKEIEYAmTqMXR2d45MfXcuZYd2hACZ+o6cya58R4BMnaFABCYiQKY+EcBtVSdT35a/aO2xECBTP5a/j9FbMvVj+Jm9nBEBMvUZwc1PNZl6fj6hRUTgCwEy9S8k+P9+ECBT348v2ZOVECBTXwn4dZolU18Hd7ZKBFIQIFNPQYky20KATH1b/qK1GSJApp6hU+YziUx9PmypmQhMRYBMfSqCrJ8fAmTq+fmEFm0MATL1jTlsmrlk6tPwY20iMCcCZOpzokvd6yBApr4O7mx1RwiQqe/ImeNdIVMfx4gSRGAtBMjU10Ke7c6HAJn6fNhS80EQIFM/iKOlm2TqC7m77/v7/X4+n5umKeCvaZrz+Xy/3/u+R1OqqmrbFo+wfEAEVmHqJkQhWt8pXq/XAzqOXY4gsAxT/2wYe0OfKTriZZ6aFYGtMPW2ba/Xa9M0VVXpIKqqqmma6/X6fD5nRWk3ysnUZ3dl13Xn81ljtCiKsiybrz8M3/P5LKn/er0WRcFpYHbfZN/AKkxdUGnb9n6/l2UpoYtB+xW8P/5XMRW+3+/MwtnH1zoGLsPUNYwlnWIGFqLwI3yjJRPbVVUxtteJG7YKCGTO1Pu+v16vSG900NV1jYOxruvH4wE9Y9GDAJm6B5RPHer7/nK5aFBWVXW73bquM/plud1dASJTN0Ad8OeKTF3QbttWArhpmgj+JnoZuhGseGpJpi5oG7L+0n0eE9tuAqdDicDyCOTM1B+Ph3J0ubI1WwaGYXg8HriC2TSNK7M8qtm2SKY+l2uez6cGa1EUKXPD4/HA9ZuUKnNZT715ILA6Ux+GQcL4JaaeB3i0IlMElmfqesEpl50vpVZk6lVVZYopzToYAtkydVydPJ/Pcbe0baucpyxL3oYNwUWmHkJm0vHn86nxVxTF/X5PVIcVX5pOEvVTbFsI5MDUT6dTURTpTD0uuS38ae0cCCzP1Idh0Hubiesm2nFk6oxthYWFdRHIk6njMnkigUHOU5Yld8J444pM3QvLpIMYeS/RdGlVqycG+iRbWTlvBHJg6rJz4HK5RKAim4mAw1MGATJ1Awh/EoFXEciQqSNNP51O6T3CW15cWffiRqbuheX9g33f46aXl+JVW73dbkVRjN45UnkW9opAPkw9ft1Ipr7XCJyjX2Tqc6BKnYdCIDemLqRF7lyVZfnq4xzI8suy5J51E8xk6gaQqT9xk1ZRFK/GqzYvD0rrTxaOiQCZ+jH9vu9ek6nv27/s3QIIZMXUu67D7b7xG7BecLquw/1pXKY0KJGpG0Am/fxgtN3vd+6JnOSMXVTOganLxSfX1HcRUFl0gkw9CzfQiC0jkBVTxxXxtxco5YEo5etvr3Ju2atB28nUg9C8ccLE65RnI/q+J1N/wwU7q5IDU5edLfEXL3L3y84Cb9bukKnPCi+VHwGBfJi6WaCs6/o9/O/3u9J07v41GJKpG0De/9n3Pd4AKorifV2/XfP5fGIEp5fl22AReZd+4bMdWlGuGcw7ifXsaCGyHHu/30+nk+7sl8/r3G437za1eEPaCrJGt4qI4aY6VyZyxEXst3314V+7YeoRSPFdHPEYUxe7KLdtez6f8Zsa8g0878JMojEpgRQ3GJNAvFHpUVwm8axBKd6LiE6jx8X87SN7ZerP5/N8PpdlidA9Hg9dLCzL8nQ6peeQrusulwt6sK5r/UCewX80FCO+xlNGLf58KV1jRdT/UhmVSLnv+9vtZr55KbCElsYSkanr+nQ6hWYftESyDfpFZy5vwsG6nyrnw9TNZPrG1hfBxDB+TJ6jHhQNXvaC8RYC/6WBFlIy63Ey9Y/B+3g8MCY+uCKu8VfX9eVyuX79KcGVC9Cvw1edGORrAvilSbGwLMv4bKEDoyxLfMWkBLQoESakjUoBTarrOtJK27YirB+/RPRCb2vyfvDVTdCSzY3C+/2uFwDaQdMLrIJdUwqIc/DHQiesKAemLn2PuHIYBpy0QpHf97256eT1snzcDh1hgtCg1XWdtF5V1fl8vl6vl8tF4zBUN90YMw95FeJbgcXy8/nsztlt22ogidjpdDJirmHSKYxGLSPsXsMEq+fzqTnBq03hKooiPmwN+O/93BlTl0/XoWclS/R9r7BjPBdFcTqdNBd5McSv5tV1bYhpRIMJxaqqNFrcAlrlhiIappNIVVUyB8k1iWgwFydYUcv4NRzXEpMZrterFx81oyxLd7BL9HorDsMQQaZpGlxl8+Yl6Yjc65Ze13UtHTFexhlTu//xQj5MHSP/jZfdITLohaIozMxuPCi0x+TPYRiez6cxKRLbbw80NHuBMpn6x0A2z5J+8JEIoZWuQpynDZGSVz3qdzrMqnyISykWenXrTTqRjctokhlmqnwYBrnPZbgFjhlJhd7Wh2HAcRiSGYYBE6i50Bc73bo4daHBarPrBSP22Z85MHXBJN4v9Hs8uhJ9h2LGd2iJfizMXEH1fY8azFnVgDJuMKgY9i5kDF6o67hTDVpAsaIoQqwCDTNDW1UNw6AXnEVRhAxTeaHjXm3YwciwVVUTC3ti6khYNXtIvKET9ZQWIsNEo9cwDF3dECV1XXvjB2Ms0op5x7xXlThaafTtdkPXm6vK0c9M6nOHqETKuholbNsV0AxcFIX7Ij+1MP7lhzgy5prc/QqP+sXdm6HvVhbXeEeZt1NvH8yHqWtIT+87JiK816oooQcjaRbDKZJm1aHvDTS1aoECmfrHQB4NsrdbkjVCN5Nii25qEDasjeKkPrqTTMZDaCQIj/eyn7hJYozSdDcVDsMwmi7NCq7bcW+XjbVyo1MltYBJRw9q4Xw+x2c+lfxUYXWm3ve9YBLvEfo9DhFKvuc7tUTTsZekYk4visLb1hzGxLmCoUfaF1P4oGGqWXROwUFVTSzsialLEjOrfXJjR1a+7/d727byhgBML14iMgyDsgfvokDKW4B1XHwkFJUEG5quMaACo80NwyDCWlcLozbr4lEIN7wv5J1ZZFldXeBNUzhLugLYU7VcC7jN+r23M6uqlEImTN0sAhZFEQI/pVOY92T4mFqjcaLy6mjcRaNnPzLQUNvcZTL1jyFsbtyE8tob7TVN4+UiGNbeCdjscknJZWKepKRIF0LpEk1yLy2GYdBllcgSJtrppsv3mLpZKXTvrEnH48NbstIbHny7yupMXTLj6KUd+t3rMkUAJb1BK5J4P8T4TgT0sZCqqkKRht40l2qiJNEYnL+9xqSQAGkRJ7YIqh80TNodhkFuhXkxT2xOVU0s7ImpKxR4T1V2U7ihYpYhvG/JED2hVRJcWpbwdh36BpsJhaJe7kbsMRcP3oGmKMlQ0p9aQJu9kx1C520C8Q/NXNiKN03pwoRgaxILTvFquRawblmWenymQiZMHSEV0Kb0FzOt98IPm/N6UFvX5B+K7ekDTdtaoECm/jGQNTKk4CbQt1tyb/aJqtH5tWkanC0w2XkXbEStrl6YPIX2pzB1lNeyXAPEExkuXXhvXY12XJrDYY/ukDuVahIW0Il4XMtee/TsxwurM3VZKIrnRHPtFBdO8R1OuqHlcA0S77QtjsCZ1SuWYozZZIKBhO5OmUL0MlXCLALUBw1TI2U4eO1PbE5VTSzskqljtgllbL1e0jxjWKnm3hDXlMUOre7d9ZQSiuJB1RMKRV00idjjXjy4W4c1YAQl/akFtNk7VHHy8hqDAl4NiZfTiombeTSfhOYvFQit42p/pxfI1ENBK9iqH71iHxlo052YroFMPR2rEUmNDCl4Z8QRFS+efnV+1WVIsTCUTyWZRqi83MH3ZkM0ydsbyWXxm4M457np0vDCCM6oJyKGdqIT8fha5dWZumBo+ISLBvrdmxm1Ckp6nSLXBkoRvAGAy1eRm636EFvTNN5oHzVGzE4JJKQaXgRkVwP2yysmLX7QMEVeeuHFPLE5VTWxsHum7s2NAppJwmatWulmJKrNBio3ikZDUd2n6c5VYvi3N2xUzzAMSFIj6UKCECtKGW32oqePcoZ2w49qSGHqmFjcOx7yPKt5vAr7guMIj89RJlP3Bq1CHY/tjww0bWuBApn6x0DWyJDCaGqb3jDmhcTmkHOEuLiQibjC99bU9V6qwSr+003ciR3Hzsa7o75AS/TgioXVmbrsQvEuYiEs6JF4AkVJ1yky3cpbHdQXrhhuCUUzXi3HjVFtKYGERMGLgOyIwN0vXjFp9IOGmV64YKZf+qqqiYUjM3V3WR2vIeMPoeqIMAXjjtFQVHnV4w1FNEarhAp6j0ue+AyJvc3UQwr1OPbanTJEDGW8XcaRbi6itKFIAYdtROwjp7Jl6pFb8aMdR/w/tfvF62iMbR0Fo4VR++cTIFP/GLa4qBAish9r7JsizAveCdhtzqzo4CQhwkKmQ1u7REbuHHlbRJPc1nUcyiuB27Q/10hsxWuGNK3NeddlXfPMYpVXYOGDqzP1lMs2Q/W8mVFxi/hOdiVJ7MV9h7RANb9RiBiD2uLGiGScBIjBshVN54MIUB80TDsivfCOl8TmVNXEwsGZOoaKSU0aG+0rf8YdqD8SY5juXDGzumyacH/ixXPkscLQQ/loc4hnu43KEX2NvaIX0oCtuF1++/0t7ms6j7P7BZceBH9vhgn5zhw3+x7dxcS4B1GbBoPraIz89pU/1L9wmUz9Y4DjbJctUzebbt2RIGuokcc99R6id0AiCC6ySrC8g8eVDx3BVrxmSMUUgmWa0OG9QKo1TXt/rsvUdTOf1zY8iB6JOxcl0XeyOURfPBf3HSpBM14tox40xuiJGyPCkSlESIyOKY2xCFAfNEz7QqauyIeYnGKFBfRFxGUYJKP61RJk6jrc8CBakliOhKLRoGa4/UIlKcnQyIdGU/Ptz5ihc4rYM4qeVJePZshSgnxSSrsT0oBGYpflS0Zavaqq+O4jtR8rmnfeq8xMhUzW1JH1CoAh16fggGPNS6JCHnSVqzfR0SL2qYHmNjrfETL1j2FrLgfjW7E/0iqGdfrwMIsluGItEVyWZfwGluzx8sqgSW4f9aw7eFzhyBHVo6NxtJCID+qJGLDYqXWZulDM+A0WgQI9EncuSqJT6rrG5/CQ96CY29wUX4SMMTrjxohwaAqRm1R4SawxFgHqg4ZpX6QXXgqS2Jyqmlg4+Jq62dWt4Y0hpAffgBr1RGIMOZYrhkpSmDpqi1xplGXp3cWOzYV4tkKB3787nU5yqypFA8roMDSF0dbFjPv9LhcJ8m0pmUZxHKm1MxXyYerYay+9TkfAbEpxkxV60A1abEjd6oqhkikDDZubu0ym/jGEzSbs0OPhH2vvtz8M+VLA6dq2eXWAzOXIKrzWnr99Mdt7CgetK6BnJ4KjeszHWc2n71AsER8d3omTk9vHzx5Zl6lLnHhnVtNNhNrNjCiMkuoUaQjzcpwcoxKshQ2llFGPGuNWjBsj8pj9FQG5n24u2jXGVMxt8YOGqXLphf7EQmJzWGVKmUzdCziG0OiTIRH8UU8kxpBbu2KoxH220tu6BnaIqctKkLdr2FyEK+PX8dyv1agBIQ3YCn699XQ6Ce0WDfLJVe9SlCz/60K+3igTQNCtXog+eDAfpq5PZwp6Jt291GX1YOhpB/SgG7TYlqpyxVCJNxpRTyZlMvVPOsJsVZ/CIVLMwrwQ4RmuKrz7gyvoYv+o2fJ1a1et2a/sCqDBo6241fUI6ol0PIVgqU4p6PAmU9eVvxRPoUfczIggo6T4ThK9mfPivkMlU1It6pkYSJj9BQF5z7Tu51EQNMYiQH3QMG2XTF2RDzE5xQoL6IuIyzBiR/WjTg08DKEpdAf1RAx+iamrkYiMKSu8oX3qspjlVYU2h9B7Pp8hipy4fwZbcZFp2xbXdOu6xhvO0lm9c+59BQ261YDz8Z/5MHWkEyGGndJ99I5ZQ9TqKON6UMXSY3vKQMPm5i6TqX8SYUzW7geHP9nSN12YF7zpL9IiLqtLZkzc6iCbZ0LJFE1yW0d8Rlfupfr1esVXwstBbCXScWwuIoZ24mSDx9cqr7imLvGQ+AIE9Eg8gaKkfLvRm5TjvsPvIqVszpEXbrjzrjEm5OW4MVLLTCGy7b4sS7dRjbEIUB80TDslvdCfWEhsDqtMKXNNHRkhIqmxkbiMLe8uRA2Gs0ZiLM5mzJOCoYSPTavxoVumQnOxipZx+Hjbwsc9zVW9KBnVkIKMfiBW+mJyi06a7uW32IDjSLs2UyEfpm5W6EJfFRzFQa+CBHw3c6Z4UFvRaPQOAT07ZaBpWwsUyNQ/CbJ5s0piEIQsuFwuLklFYcwLiUxUq+N1sCyrizZvEtRa+pLd0DormoS1pCzkTweJdyiaWlVVuV3DVtyzqiGFYKmwFNQ2rqkLyN5Z04BmMrU3M2oV9N3tdivL0nvNFvcdng3datcWh2GQaR6PSBmNmRhISBSappEdYt5hojEWAeqDhmmvRaf+xEJic1hlSplMXWPAcEHcg+EdFwb2+/3uRpEJRVMFf6oZrpJhGNAYYycqkTJOKKF1yqqqQqfQZm/O0RANrR2MakjkeWYXq6YF1B+aJdXIBaaPrJi6ua7zhpMbM+YIbknwxkCiB0Vtemy/PdCM/bP+JFP/MLxmz9Z7ISuEOPSZdLUY84ImFD07WtAVAln+T7xvJVv6QsrRJFcGs3lRFKGVCa14vV69yzPYSqTjyOciYtocLjItkGqx3VB5rTV1nZZSrqbeZuqRGIj7zkwMoyOlrmtvOv5gICliOkOEpnMViCSHDxqmoSU69ScWEpvDKlPKB2fqGL1m7xbm5KIoQiEk4MvCkNHwQTaTssapYYDx711gkl6HeoTVXZaGE0do1MQ1iJ0oE9JjZgE1Bl0Tmk1wHCkyMxWyYurmnXIpqycGFkz4kcvCRA+iE72ORm++PdBMF2b9Sab+eXhNEHgpQrxVWXv2LshhRcwLodyB8qaMQS/sYfTZQcmYETE0yTQnP3HfQoSo6eK9JkrUhq1EOo6DPyKGmpVFHZypC8LpoYse8WZGBRkl8RkJFZDCqO9QT3ynmYxHbwCgEq9AojGGHsVfgKAxFgHqg4YpsHVdh9YjE5tTVRMLB2fquprjxj+SeImTELXV7VXug4+Y2CMxNspmkB/Hhxh+zikUYzIMXWslltBmN+fj2VCPUMbV4LYS0oOw4EBOGSMoM3GMjFbPjamb9ZrRZTjsIG5twjeAoYyU0csRD6ITvWIfGWiuefMdIVP/PLZmr9tojjMWeB+wMzLyE/NChGd467oaUvbqCH+KrLOOmuSOEPk4M2bwvu+lIXcmc82OdHyU7bnIKIs6MlOXCPTusXYRcz0Shw4jxLv2JgpHfYcpW7xW17UJhsfjIRuCQ/fc0RhTF3uKxoSYE9oTWRManUJcPBMNM2J937dtq8NKHi/xTlpmijV6EIdPlbfF1HFPeQhAs6YYDwDdVeIuhw/DYNYyiqI4nU5m1UafffRSUgzFiMEpoYiRH3pOVKJCO+WNH1n+j1z5x23Gs955qus6dJOuJT2//Wncop4QMmaG0hyFucLbEb0Ak3SkQy+UMdSq9woZMnXDfLwouZ1Np+lmQSTkQWlCp/LQpeP0geb2Zb4jZOqzYCsP+misyOKxN4Vh813XSfQkjm3MHaPKsSEtp2QuFZYRFR9+KSaZ7K8oyUcxMOFqllQbpJDSCi7z4NKIUWV+qjFxumlqzfdz+d0vmje9JCDUU/RaHLoP+s7cnRfflWUpgaS7HkPXe+kMFSM2BEviUDJfMwjhOR0lYU5lWUpmkC6EjE9sLmTtq8eXZ+ronVeXTjAnhGZ9w9Qjd/81lkJXj+7DTmJAVVUmsEPXA9jZCJtJDEUc2qGFUh2JSpFNSMiCemSJJ26zMbWua710kWWdsizRTtkO93g8zHJDvBWxGQkcpg7to7gDh1Lbtk3TlGWplytFUdxut77vT6dTfMY0QKX/zJCpD8MgXdYhczqd9IrF2zXxkUa4utUr/B5TD81H0wdayMg5jpOpz4Hqd52alDVw5R2uuNYlj7vd73dJEOlfR8MVkdGNVpFO6iQdvzyQRQuT+Fy1So/iJpkNQooPFiL2JLaCuTs0hWAXMI97V25QeJnywky9bVvBNjLBux03q1DxZ//Rd941RdGf6LvRQIrfS0VjQpeFwzBgK6F5F1fUvA9XSL/M82qhaQwNiwyEEEomknWMh6gSjrsIDq7r3zuyPFM3qThCuE2PDJKRtGCaKMvSRVJlQpRXWterZfSLKUc0YChGepoYimah1Dzi3/e9jo5QjhV7Qmely6M2ayuKg1y3yONV9/vd9ZQ7B2ErborDvkgr6EGzF6goCrl2EnYuL23UgaZGRtxkIu3Vn3kydfWmZrCyLG+3m5t5Ho8HwnU+n0PJEJFBD4auVIdhMM5yWxedEwcaGjZ3mUx9XoTxa2o6er0FIfEpwSrkHi/9JWs8Ho/E6thnydcRbtF1nTzZKXcGzNeF8KcxSeaqkEn3+10HswFE9sOgkVp28fTOiLp/RjW7e2xUpxR0p4RWaZrmvTsVRvOUn4sx9cfjgXOhvDJf5sL4v14nVlV1v9+N6xN9J/GmXtCZOASjsh+sIuWmaUI52jWmqqrL5YLxLGV5i4sq98YbrgyJ5Pl8dpt2Y8x8vUXmGHSEdB8Zg+AQR8msQYpJXsbv4qDL8CHApx9fkqm3beuNkKZpHo+H6yPt3fP59OYoiW138Q9b0S/p1HUtQXW5XHTBNc5ZxQD3rqxGYFEU3pd5S8UPhqJCgd8bEjN0gV9/uiE6DAOyMe/gkiGG4IjC8/lsEDYXDIqGrq+7S6Qm4A0y5be3Tul4l0VxVWsuSAQK8+4yFdb1dYyB+FNYiu3bhZyZuuYxnB00ZnB9QYI5cZ41HpSNYepBLJgmvNlYkH97oL3tuPcqkqm/h9trtfq+v9/v5/PZpAO5Uz/6NkZszLtyoClDCpo4sGKoLMklVMWkHtNQ4s+Q8r7vb7cbXljXdX29Xg3DU8vjzWkrqNCtomKqNqWPialEdX6qsAxTd1H64BGBLq5Q4XrVd1Kx67rL5aLZuSzL0+kUcVncmMSzEkjx4NFgGx220pF406otBaXH46HU0ItGXEn6hjH1XXphGaY+2kFF21g+6iytiDGGkSBJzE1ul8slcm1gzJB7/efzWf0YD2w0QC3Egugf7Z1rhhyRUYaoylsXDSHW6tj022XVJjsrrterolHXtbkpp1dWJuBHkRHzhEpeLhdzkYA2tG2rC1LC9VFYad9L626oP72cOVOXjiDzwRio6/p0OnnX2r0IJHoQm/CWvcpfHWghJbMeJ1OfFd4NKJfEF5o/cIQ0TXO/3zExebsnn7PBhK4MwyvPgxEE1mLqZVnKBWQoMIzN4nSdwzBLIpsxtTb0k1H9QWctw9Q/aHCKKkyVzHi4OVOSidnz6ULadV3btpfLBRdiXTEeEQQ2wdRXdNbOwolMfcVYWr9p2foSerYJH5MKLZxE+qD3CjlvRVCKn1qFqUdua8StlZueurYtfH0fTF07rlv5GdWKyasFMvVXEduivAz/NzZq40aXLXZ8GZvJ1BNxxscPEqtkKEamnqFTljNJVr69WwzFCFkoStlY6TVanpcnp/GCk3JwYaYef/4yxWCRwcX1nTF12X076+aQdJw3KkmmvlHHvWS2PGKReFPOaO66TlbWzXH+VATI1BWKlIKsH6VI5ilDpp6nX5awSp6PjrwcQNfUQxvHR62UJ9vI1EeBCgkszNTfuHPitRxXxfbH1OX1joxqr+tTDqjp6kcAACAASURBVJKpp6C0dZmiKN5e4tF37G4dhPnsJ1N/CVt5POOlKlkJk6ln5Y5FjZEF9TjhuF6v7tusXrKyaZp4Ey9pO5rwkkw9sgnqDdj1wbVdMvXb7caofiMqpAqZ+tvQbahi5KXyKb3YOrVK6eMUGTL1V9GLvODuVVXLy5OpL4/5Ci1eLhd51971eu26TnduyRciIgbJm48iAqOnpmsYbWLHAosxdfzGx6fwlEvBXTJ1efffp4A6mh4y9SN4PPTFmfS+T9eQ3tbmJMnUX3XZxDXHV5v7rDyZ+mfxzFEbfiwAX8oR/0JNjj05nk2LMfXQB32mQC7PK++SqU+BhXXJ1BkDRGAiAmTqEwHcVnUy9W356x1r8fVhyNQ/tSn5HZtYJw2BxZj6THx64h3wNJAotTEEdsnU8XtVn91ItjHv0txFECBTXwTmXBohU8/FE/PZoTuGlaZHPgI6nxnU/AYCizH1N2xLqZLDd15T7KTMkgjsjKnLF9w0u0pB9hkuiSrbOhQCZOqHcjeZ+iHcrR8slM+qvffmrEMglVknl2HqmXWa5uwcgd0wdXcRxPB17rTeeSiv1z0y9fWwX6FlMvUVQGeTRCARATL1RKAotiEEdsPUN4Q5Td0ZAmTqO3NovDtk6nF8eJYIrIkAmfqa6LPteRAgU58HV2o9EAJk6gdy9jCQqR/K3ezsxhAgU9+Yw2huAgJk6gkgUYQIxBAgU4+hs7tzZOq7cyk7tCMEyNR35Ex25TsCZOoMBSIwEQEy9YkAbqs6mfq2/EVrj4UAmfqx/H2M3pKpH8PP7OWMCJCpzwhufqrJ1PPzCS0iAl8IkKl/IcH/94MAmfp+fMmerIQAmfpKwK/TLJn6OrizVSKQggCZegpKlNkWAmTq2/IXrc0QATL1DJ0yn0lk6vNhS81EYCoCZOpTEWT9/BAgU8/PJ7RoYwiQqW/MYdPMJVOfhh9rE4E5ESBTnxNd6l4HATL1dXBnqztCgEx9R84c7wqZ+jhGlCACayFApr4W8mx3PgTI1OfDlpoPggCZ+kEcLd0kUz+Uu9nZjSFApr4xh9HcBATI1BNAoggRiCFAph5DZ3fnyNR351J2aEcIkKnvyJnsyncEyNQZCkRgIgJk6hMB3FZ1MvVt+YvWHgsBMvVj+fsYvSVTP4af2csZESBTnxHc/FSTqefnE1pEBL4QIFP/QoL/7wcBMvX9+JI9WQkBMvWVgF+nWTL1dXBnq0QgBQEy9RSUKLMtBMjUt+UvWpshAmTqGTplPpPI1OfDlpqJwFQEyNSnIsj6+SFApp6fT2jRxhAgU9+Yw6aZS6Y+DT/WJgJzIkCmPie61L0OAmTq6+DOVneEAJn6jpw53hUy9XGMKEEE1kKATH0t5NnufAiQqc+HLTUfBAEy9YM4WrpJpn4od7OzG0OATH1jDqO5CQiQqSeARBEiEEOATD2Gzu7OkanvzqXs0I4QIFPfkTPZle8IkKkzFIjARATI1CcCuK3qZOrb8hetPRYCZOrH8vcxekumfgw/s5czIkCmPiO4+akmU8/PJ7SICHwhQKb+hQT/3w8CZOr78SV7shICZOorAb9Os2Tq6+DOVolACgJk6ikoUWZbCJCpb8tftDZDBMjUM3TKfCaRqc+HLTUTgakIkKlPRZD180OATD0/n9CijSFApr4xh00zl0x9Gn6sTQTmRIBMfU50qXsdBMjU18Gdre4IATL1HTlzvCtk6uMYUYIIrIUAmfpayLPd+RAgU58PW2o+CAJk6gdxtHSTTP1Q7mZnN4YAmbo4rGmaIvzXNI2ItW0blipELC5TFEXbtqItogrFMKTu9/vpdKrrWutWVXU6ne73e9/3KHnkMpl6ovfLstRASi/ocHBb6brucrngaKrr+nw+a8y7VYZhQPl0M4qiuF6vwzBcr9d4rYjBXnt4cBiGbJl63NcSEqNBlRg5Jm7v97vk3rIsL5eLN042mqLJ1L3e5EEikAUCZOrohtvtZqaB2+3mMuD7/W4ozvV6NWLP5xP5dFEUdV0/n09sbhiGruvO5zM2Wtf14/EwYsMwPJ/PqqpE8nQ6Xb/9YRNlWbr6XT1HOEKmnuhlCaeqqs7ns0TU9XpF3tw0jR4/n88a9q7+vu8vl4sorOu6aRoNVw1aM0ZQyfP5PJ1OIonGaOuora5rQ6GGYWjbVs1TPV3XYSsspyOQLVP3ps2yLN202fe9SellWbqLGomRYxJ1URS32w3x3HSKJlNHV7JMBPJCgEzd+EPZRlEU5/PZnNWfKFbXtR7HQt/3whjk3whpQIbhzjdC01Xmfr9jK/f7XVspyzJChrDWvstk6in+lZs/dV2bmMElal2hFIV938vFoQlmPX46nfBU27aGYZu2jJ0i7LJws0TqHSPDMDweDx0LVVUZ5fz5EgI5M3XpCK5TmKyIPdUrwKIoQgvho5GDaVZjDEfH8/ncdIomU8eYYZkI5IUAmbrxR4SmoCRucYncW9ecXhQFVjdlXMX00hSlO962cLHHLPOYhg7yk0w9xdHCTtz7MPEh0HWd2ZqlNN17Zdv3vUZvURSn0ylimwwE7xAYHSOyrK4jzjtSIk3zlEEgf6aeEhJmcxRya+zvaD6vqkp2vOidpaqq8KJUg9wbePmnaDJ1jAeWiUBeCJCpG3/EaYoK403V0DrNMAzKG9KZurvo+Hw+VY93GsAFoTgTUvv3XSBTT/Hv9Xr13g4aHQKy+UqbkPtLkTVssx7pJeKiTVR5BVJo2SjfUptZGEVgl0w9dDcmHjlyNrJsv4MUTaY+OiIoQARWQ4BM3UA/SlPMTXZ9rM3okZ/KsNOZuqsHpwEvEUcBL5V3de77CJl6in9Pp5P3DszoELher3p1Kkvs7p5dNEBlZDhoXZSRsjRNpu4is/yRXTJ1b2iN3o05n8+RC1HZnaipfqMpmkx9+SHGFolAKgJk6gapUZoi+xH1XucCTH0YBl22dPcqiP06T5CpD8NApm6i+qWfo0MAtenNpVBkmvgsiu+vSEIlWiZTVyhWL5Cpiwv6vo+86UXdtPUUTaaurmSBCGSHAJm6cUmcpkjWltezKDkO7X18b/eLsSfxpxpDpk6mnhgzIbH4EDC18Kk+DcLRglGiP8nUFYrVC2Tq4gKJyfiFaIqzdFDkmaLJ1FOcSBkisA4CZOoG9whNkSfnyrLsug73Na7I1Luuu16vuMCf5zRgQJ77J9fUpyAcGQKuWuUf7St/rh45QqYeQmb542Tquq1lSlLdSoomU19+iLFFIpCKAJm6QSpCU+Spf1lcWZ2p3+93fcYOXywwZVIxUGz3J5n6FN9FhoBRixvQQzuATZX4TzL1OD5Lnj04UxeGXZZlVVXuU/4pjthWiiZTT/EpZYjAOgiQqRvcQzRFtiHq4/9vMHVdfYwXjD3mZ9/31+tVXtxb17V+xUN1kqlz94uJmVd/hoaAqwdHwQeZunengV6XmndEolVoj44ILdR1LQ/R4sv1sDrLiMC2mLp6OV4IRWkkcrxfrEOgTHmjKZpM3fiRP4lARgiQqRtneGmKvGYOX5SBmT1x94t+bdEt4PYVYw/+vN1uytHNlKPzE5k6mTrGzBtl7xDw6sFRgKPDK5xyUJr2Sr7K1Kuq0oF2Op30qzQyUi6Xy3sLpV7bdnlwW0zd+11bCYBXI0e+gIujIP3zz9tN0WTquxzF7NROECBTN47EBC0UXN6BaL7qghwlkambhvAnziV4XMt936uM9yV3ZOqKFZk6QvFG2R0CISU4CrwvpwtVDB3/IFN3L1nv9zvyde+75EOGHfD4tpi6WblAf2E8h8QwkjVy5D6qpNbRaNl6iiZTx5hhmQjkhQCZuvEHpvXr9SrvZHTTNGb2uZm6fgOyKApzwaDGk6krFGTqCMUbZTME4ho08IqiSNlVIoQmpHNWpm5emx1/B3zIwuMcJ1OXN31phEfy/A5SNJn6cYY2e7o9BMjUjc+Qplwul/rbn3ujfEmmjiaFyJBOJ7ogZPp1qJ98onSKuzHeIuxEmsCNW6HLSDRGHrPDI1iWG0d4RMt6Tylxn3poIOBrJUMy2uiRC2TqwzDgWIhci6LYRlM0mfqRBzv7njsCZOrGQ5hzi6II7VBckqkjGTLW6k8ydYWCa+oIxRtlHAKjTB3fO1QUhT5y7W1XFikjO9oXYOrYu/iXg71dOM5BMnXxNabf0KUdyoQiJPMUTaYechyPE4H1ESBTNz4wE3nKvsYIm9HsHOcEuF5o7En8fJI2FJpLXLU7PsI19SnOxSEQiW1pQp7i0PCLkHX9HIF7h0qtres69Nl2HCMpozI0ELB3ZVlq0ywYBMjUBZDH44Hh/Xg8DFD7SNFk6q5beYQI5IIAmbrxBE7k3mc3RX7JNXWcJ9w1y77vcV1Tt9T3fe+dVEx/d/mTTH2KW3EIjDL1YRhOpxOGaFEUp9PJvGmxbVvZdoIK+75v21aJe9/3RVGEGPanmDrufvnIU7BToM65Lpm6egdjz/t6dYz/jaZoMnV1NwtEIDsEyNSNSxJpCi60hLhF4lrLMAzIHtz1QjxbliXy7/v9XlUVChRF8fz2J29bN707yE8y9SmOThwC2oR58E5ZS1VVzbc/feOKXkZKXdkzUJalxLy0i1RemxiGAdmSO0ZEEq+fvaMSh21kvzu2e9jybpg6vsIlFF3xyOm6TmO4KAp3BQcz8EZTNJn6YUc6O74BBMjUjZNwgTCy5IbZ3/APVWg2BoSeNJKlROU3SMRFlbzNXQWKoqjrumkamTxk2sCzUk55vE9N3VmBTH2KQ5ETJ0aRvCLJDUI8Ute1Lp+7r2HRRkPDBFW5Y0T6e7vdVMxl6ng28hqlKdDtqW7+TB3Zs7uSrb5AGu2SbDdyvPuvTPCY5naQosnUNWBYIALZIUCmri7p+96kY3mPG9KLYRj6vjcvZi6K4nq9GrHn84kzhNBrsyVgGIau6/DaQMRcIoL7W5SL4OKNEh05m0iwtO87K5Cpv+dQ+YK6BpgU7vd7iD1jK/g+aaNB9rSYAWIuULUt1CnlrutM/OsyPAo/Hg+kbmVZ6tdwzuczPvNXlmXkqVbUeeRyzkzdGxJu2pTPhWI0lmWp33VW55rIkVVzN+ZNPr9eryhjQlQa3VCKJlPXeGCBCGSHAJm6uMQwXUzueJccNwYYGd1iizdSXRnU5j2rB80t/vv9rlNFVVXmI4vP51O4yJE3vejoIlNXKNILGnihgrtK7Spv2xZpcVmWp9PJRLLWejweSqC9YvFRKVfI7qv0QvbXdX0+n12ipvawgAhky9RD/pXjur8lHjwiFs/nmKuHYfDeONLmhmHYdIomU8fgZ5kI5IUAmXpe/qA1n0CATP0TKFLHoRHIlqkf2iuzdZ5MfTZoqZgITEaATH0yhFSQHQJk6tm5hAZtDQEy9a15bJK9ZOqT4GNlIjArAmTqs8JL5asgQKa+CuxsdE8IkKnvyZujfSFTH4WIAkRgNQTI1FeDng3PhgCZ+mzQUvFRECBTP4qnv/WTTP1Q7mZnN4YAmfrGHEZzExAgU08AiSJEIIYAmXoMnd2dI1PfnUvZoR0hQKa+I2eyK98RIFNnKBCBiQiQqU8EcFvVydS35S9aeywEyNSP5e9j9JZM/Rh+Zi9nRIBMfUZw81NNpp6fT2gREfhCgEz9Cwn+vx8EyNT340v2ZCUEyNRXAn6dZsnU18GdrRKBFATI1FNQosy2ECBT35a/aG2GCJCpZ+iU+UwiU58PW2omAlMRIFOfiiDr54cAmXp+PqFFG0OATH1jDptmLpn6NPxYmwjMiQCZ+pzoUvc6CJCpr4M7W90RAmTqO3LmeFfI1McxogQRWAsBMvW1kGe78yFApj4fttR8EATI1A/iaOkmmfqh3M3ObgwBMvWNOYzmJiBApp4AEkWIQAwBMvUYOrs7R6a+O5eyQztCgEx9R85kV74jQKbOUCACExEgU58I4Laqk6lvy1+09lgIkKkfy9/H6C2Z+jH8zF7OiACZ+ozg5qeaTD0/n9AiIvCFAJn6FxL8fz8IkKnvx5fsyUoIkKmvBPw6zZKpr4M7WyUCKQiQqaegRJltIUCmvi1/0doMESBTz9Ap85lEpj4fttRMBKYiQKY+FUHWzw8BMvX8fEKLNoYAmfrGHDbNXDL1afixNhGYEwEy9TnRpe51ECBTXwd3trojBMjUd+TM8a6QqY9jRAkisBYCZOprIc9250OATH0+bKn5IAiQqR/E0dJNMvVDuZud3RgCZOobcxjNTUCATD0BJIoQgRgCZOoxdHZ3jkx9dy5lh3aEAJn6jpzJrnxHgEydoUAEJiJApj4RwG1VJ1Pflr9o7bEQIFM/lr+P0Vsy9WP4mb2cEQEy9RnBzU81mXp+PqFFROALATL1LyT4/34QIFPfjy/Zk5UQIFNfCfh1miVTXwd3tkoEUhAgU09BiTLbQoBMfVv+orUZIkCmnqFT5jPJz9T/r23+/c7v/E7x9feLX/xim52g1UTgBwK/+MUvviK6+J3f+Z0fJ1giAptFgIl6s66j4bkgwEGUiycWsUNpAAtEgAgQASJABIgAESACRIAIEAEiQASIABEgAkSACBABIkAEiAARIAJEgAgQASJABIgAESACRGAnCPx/2/z7t3/7N3XA3/3d322zE7SaCPxA4E/+5E80pP/nf/7nxwmWiMBmEfiv//ovjeq//Mu/3Gw/aDgRWA2B//iP/9BB9Dd/8zer2cGGF0HA/0TpfE+wzqr5559/1tj96aefZm2LyonAAgjw3S8LgMwmFkaA735ZGHA2tz8E+O6X/fk00iMy9Qg4PEUEVkaATH1lB7D5GRAgU58BVKo8FgJk6ofyN5n6odzNzm4MATL1jTmM5iYgQKaeABJFiEAMATL1GDq7O0emvjuXskM7QoBMfUfOZFe+I0CmzlAgAhMRIFOfCOC2qpOpb8tftPZYCJCpH8vfx+gtmfox/MxezogAmfqM4Oanmkw9P5/QIiLwhQCZ+hcS/H8/CJCp78eX7MlKCJCprwT8Os2Sqa+DO1slAikIkKmnoESZbSFApr4tf9HaDBEgU8/QKfOZRKY+H7bUTASmIkCmPhVB1s8PATL1/HxCizaGAJn6xhw2zVwy9Wn4sTYRmBMBMvU50aXudRAgU18Hd7a6IwTI1HfkzPGukKmPY0QJIrAWAmTqayHPdudDgEx9Pmyp+SAIkKkfxNHSTTL1Q7mbnd0YAmTqG3MYzU1AgEw9ASSKEIEYAmTqMXR2d45MfXcuZYd2hACZ+o6cya58R4BMnaFABCYiQKY+EcBtVSdT35a/aO2xECBTP5a/j9FbMvVj+Jm9nBEBMvUZwc1PNZl6fj6hRUTgCwEy9S8k+P9+ECBT348v2ZOVECBTXwn4dZolU18Hd7ZKBFIQIFNPQYky20KATH1b/qK1GSJApp6hU+YziUx9PmypmQhMRYBMfSqCrJ8fAmTq+fmEFm0MATL1jTlsmrlk6tPwY20iMCcCZOpzokvd6yBApr4O7mx1RwiQqe/ImeNdIVMfx4gSRGAtBMjU10Ke7c6HAJn6fNhS80EQIFM/iKOlm2Tqh3I3O7sxBMjUN+YwmpuAAJl6AkgUIQIxBMjUY+js7hyZ+u5cyg7tCAEy9R05k135jgCZOkOBCExEgEx9IoDbqk6mvi1/0dpjIUCmfix/H6O3ZOrH8DN7OSMCZOozgpufajL1/HxCi4jAFwJk6l9I8P/9IECmvh9fsicrIUCmvhLw6zRLpr4O7myVCKQgQKaeghJltoUAmfq2/EVrM0SATD1Dp8xnEpn6fNhSMxGYigCZ+lQEWT8/BMjU8/MJLdoYAmTqG3PYNHPJ1Kfhx9pEYE4EyNTnRJe610GATH0d3NnqjhAgU9+RM8e7kgtTb9u2aZqiKMZNDkv8/PPPxdffTz/9FBZ884xY+NVC7H/TwPV6jUnDubZtTV3+PDICczN1CL03i03THNlB7PsbCMzN1COJ+nq9vmEwVun7PjJUmMARK5bnQ2Atpt62bST+5VTXdfN1/Jia12fqytHFx1PcMDdTF9vatvUy76ZpHo9HJEa7rrvf71VVmUCvqup+vz+fzyl9Z91dIjA3Ux+Goeu6x+NR17UJyybw54rtEnl2aj4E5mbqYnnXdZfLxYRrWZZ930/pmpv867p+PB5TdLIuEXgVgbWYeuQyWMba+Xx+tS+UH0VgTab+eDxcr49aHBFYhqmLASZfp08A7iVphNxHOstTR0BgAaYuMPZ9X5Yl0poIvF3XafxzTT0CFE95EViGqUvTp9MJo7ooitvt5rUq5aA7TIqimEj9U9qlDBEwCKzC1O/3uxlN7k+uORpPfeTnOky9bduqquq63i5TN4T7petIDO6qqj7iSCrZJQKLMfVhGMxgHMVThgCZ+ihQFDAILMnUXW4xJeW62hj/xrn8uQwCqzB1d0cAkpmiKDgcZvL+Oky9+/YnXdLFOXH5lH4uuaY+DAPG6EvbH5ESMbKneHz3dZdk6marQAq25/O5rusUScoQAUVgSaZullQkad/vdzXmpYLLVJjAXwKQwp9CYHmmLpepDPhPefAlPeswdTTx+Xwi5cVTr5Y3wdT7vsd0z7h/1cuHkl+Sqb9xzfx4PCY+BX4ob7KzgsDyTL1pGtzc9d6yujCVsizxoQ4mcEb1Kggsz9SFt3Cz7iruXp+pm8XpKShsgqmfz2e8MmGin+Lx3dfNnKnL4N29F9jBzyKwClM3F6JvvKRF7oVer1feFP1sPFDbGwgszNTlMvWlXb5vdIpVQgiQqYeQGT+OhDtx98vtdsNa3Nc1jvKxJfJn6sf2D3v/DgKrMHXzMOirSyS6i6brOjL1d7zOOh9FYGGmzgX1j3rvZWVk6i9DphWQc6cwdcn1p9OJiV4xZCGOAJl6HB+e3SICqzD1YRjM/cyXltWlrqwpMoFvMep2ZvOSTF0fpC7L8nQ63W437oFZOJzI1N8H/CWmLis6dV33fc9E/z7oB6tJpn4whx+iu2sx9a7rMGmn38rXikJQmMAPEaZ5d3JJpo5P1ukIquv67Sez84Y2R+vI1N/3ioZsURSja+p1XZdlKa8aHU30qDlULsuyaZrL5TK6MiRfADHPVEnd0KtP0ULXAL1xbLZ+GkkVcyHu+/52u6FJVVWdTqfIyNe7z6YV87OqqqZprtfrPi76t87U27Y9n88YThK38VUZ2RWG4aFelrj1OldlQoXQSEHzvHVDFd3A5pEUBNZi6u6yujeQ3C7IgromNAwYPejWkiOa65Du1HV9Pp9Hv5fU9/39fpcHWFV/3/eXy0W11XV9vV6973SP5+eUvZejGtQq78DRgyKmP70FnUMRXldSxbTpYRjeyzOoYXPlxZi6Lqi7viiKoqoqpscFgodM/X2QMXC96UNVy/vvNC9jJgol+r7vzb3a8/l8/fYnr8bD1k+nkzdTD8Ogr96rqupyuVyv1/P5jK9BCC0syQSDrchHQ9yGHo8HKpTrltAU2Pe9Zn+ZY67XK36dpKoqBUoB1ELXdfjiBWlLYDmdTjp7idlxp6jOnAvbZep478jr6KIoQhdmGHV1XXvj1uvcruvMqCnLMhJO6Prn84kDU3hM6FIWK7L8KgIrMnVzwR/Kftgj3eCujATjJJTARcP9fpfcWJalJHAk2UVRyF1WbE7Kz+fTJGo57iZbGSyROG/b1uTn8/kcys+uJcKDUzS0bWuS8+l0Mg0ljlB39inL8n6/u7PPlDzj7exWDi7G1M2sislZy95svBUkN2Enmfr7btIwja+pyyXp5XLRltITPSY+nSdEj+Gsp9NJ9WtBWYuZD/q+R82RYaZEvyiKyKyGT8pGXrCt7ZZlGe8OwqXdkULf94i8OWumpSnfIzSaV/m5UaaujnbD5vl84qxvwkBAVv8aKo9qi6IIBQlOLUZD3Im6yUEMMCQjXpdn0xFYkam7X/hyyZ/piKwsICNPTOC6GKl3U1WzZmZ3YdvluxKNwzDIS1F1dLgF72gyFd97QyU2HdGAYpGvt+LsExmhuILjHeyYEMz0lJJn1B1bLCzG1Idh6Pu+bdvH43G9XtF3GIEG/y1CmrPNZOrvewfDNER2JV9gljdThTllrMEpwc3CutgjlhgBnSeKojCnhmFAUlKWpWlXf+r6d/xqBFeqQj3CrOpdqkSBeHOIvJqqBTSmLMvRmVgrZljYKFNHIuKiipHpvcIU/3qncIzboii8ZDo+alx78Eg8tFCS5bcRWJepGzYZSt3aO7mwxGjEAAulOwxUbxN4PYn5sO/7ruvce6pd15VlKbdG229/l8sFL3qLogilO0yJIYO1v95CuoaUEYQAunOTGjA6+0zMM9rQFgtLMnWDT9d11+vVxF58yjYa+PNVBMjUX0XshzymJG8uFurpZk/MU/G8iZLejIZr3mbVARckvHXx4hinih89HIbRXCnCmMeNGapNTY1cfJvPYHnNTnkBP3YtcfOD2plVYUWmjuEt+xGbb3/X6/XxeMSvfzCJu3jiXRHvVaK70IhKcFB475mgQCiEUCGWsdd4nOUPIrAuUx+GAVmym5+xp3JVaVaRMcBCCRxvM3pnB82HsqsQG5UyDhMZEe4uR3Nn1b2FJaowP4cMdg3AI4kaMIFHbq4igJERirOPN41PzDPYwc2VV2TqglXf98gxJHNGvLk5hLMymEz9fXfgpO7NxRLHLgnGPBXPmyjpHQOYy4wqHEWuDcMwoIBX+fAWU/dCgStMXmPUDbhMYiZIlUHk9SAWEDevPSicc3lFpi7P5go7R8ClXH7bdxvi6zqDeon4MAwq4P3EaVEU3olZPDXqXBQIBXbI6djTkAyPT0RgdaaOd3VCRFn6KJweF9QTb4oiU/deT6JAKEdhNIYWOGStHSXdUZnIsyNuTdFgLDHzESpPHKE4u3kHsqaR9/IMmrS58upMXRDDMI6vsGwO4awMJlN/3x2YHN1UKxHszdGYpyLpzEwJ3lSFCzMmlT+fT5lmQovczckhtAAAIABJREFUo3nwg0wd+XcccVyVCTE2RN6rDdfUzSzrlc/24IpM3WDyfD69d9u9113yIJ08BGb0yE8cAq5AaN4VSVwQ9RJ6VO4dNW6LemQ0tFSShbcRWJ2pm2X10IqA7JNxF90xwEIJXJ90bJrGpc7ymKYGmzt9CLYq4L2gVfwxk3sf1E7h2arNWxjVIDeQcWyGkEmZ18QG7Jd3IE/MM96ebuVgJkzdkISiKLwzwlZQzdZOMvX3XYNp1KRayWuGOmtLKYlehFHSTVVmn/qrlHQ0D5pBaPqo3RmddfA2biR9q0JM95F9zIK/1tICTiqhrcwqnHkhH6YuQLl3PN2n5VIgxcBOkVcZdG7o9joqd0eNqvIWcFB7BXhwOgI5MHXMfl52q4TSzXsYYCkJzYsYRrLbhFRJjEZMsN4NMNjWewaPapB3quI6S6QhBDAyQtFHETEvvHIQG4qIbfFUPkxdR4qEayiYtwhyPjaTqb/vC0yjGJ1yE9C8bgWbwfQRSWdmALipCheq43qwdXkVAG598T5yKlUwV2IfjULM464YPsKVYif2y7u8isgbS9IfSzUV8/yZG1MXlEzwhBizCym+H1qd6IqFjvR9r1dxVVWFFm9wfLmjJqRcjqtV8VXMuBKejSOQA1M3yxzusrrmNHdFHAMsJaEZNNw3MLo5U6qkR2PcJO3L2/sT4hokY8sNLrU5ggxaGxmhOPtExAy88q4SfQ+92uOKbfpIVkwdd7dG/L5pwNc1nkz9ffw1BZinnvEjR17tmKfiYY2Smqq6rrvf70pZIq+rM63LJ5Bkb5/sQtYuqHJTBXNlaDoZXVNHJfH+Suso7yVMajaefT6f+EB6ZOuF6WPOP/Nk6oblhJYkEVj5NIk4rmkajF4UC5Ul5nVb6vl8dvmT1vWOGj0bL3hDK16FZ19FIAemjt+aEKebHCjs03tfFAMsJaEJPvKOcIl8+Sq7BlsotaoAJjov2pgzXZPiPNur0ByMaJBN/3pHV212zVCdCKCBXWXMHd2IGFaZmGdQVeblrJg6PvYW8XvmkOZsHpn6+97RlIRMHVcXQqoxT8XDGiWxOS3XdR1aWcTW27YVVeW3BwGlCib3UB5EGW00XnBnHVQS76/YjLOCd4qKG1AUhfuSBERjQ+U8mbr7rUfvJiXBWa8qq6rSb8diYI+6A93dNI33zYyoBJVjXXmNnXzl1LvBPeW1QtgQy+8hkAlTx4VAs9isp7zBhgGWktDwcz+n00liD7OcmzMFWIzeONT4YJ9rEraFOqVc1/XpdIp/Nhg1oH65X4rXM6ofxYzxCKDKxwuhGUo1T88zqmoThdyYukZgxO+bADZPI8nU3/cLZhZJtbK6EHqCU1vCPBUPa5TUb5ReLhc8LnNMKJF1XafC5qPTSKBD1VGmaRr5Gqj7L+5XcWcdVOLeZVZYtICzwihTV2PcT7e++ik+NSCfQrZMXfOyjAKvW9u21RVEXXITbDUmvf41+MtXbHEZ/nQ6hSLW7BnDUYPPGYe+g42D2pjBn59CIBOm7l5w6qqHJLTQ9SdGbzyB932vD/2bD3ZilnNzpkCdHo2ozTUJz8oFs37XWe9TSVuXy8V7two1qH75WohBSW1WMTdsEEAdoZrJtYBikfH+qTzj2pnzkdyYukZIxO8545m5bWTq7ztIU5KsqXs/cuTVjgkoHtYoaVJV3/fIgL3vGtNvWXs39WJ1o1zNRpnQdPLS7pcUZqZjXhZB1RgtIPJ6UApd1+EuavdjqEY+85/ZMnX0kbjDIKkExfvuCwxsUzHy8/l8YkVcycNaKGMCGy9cxWyzuB4JLWyC5SkI5MPU8QlIfRZTN3eZ4NEuY4BFEri+fcu7Ew9HUCi1pkcjanNNip/VaUKa8z524mqQh0bcx7HUZtcML4AhkBN3v8yRZ9TOnAvZMvXRlcqcUc3WNjL1912jKUl2ildV5b7Py6s9MdGb1UFvRjMvBkbaoadCb+dAFu5VbnJlaDoZZepm/TXUlmKFs4JZsBEZRF5rYQHX+Muy9N7CRvlsyxtl6oq/O5EL1DgEXgUf63pnBRTwBhsKmLsBo6H1qrWUdxHIh6mbHCuvipLEmEg0Q2L4NXtzQ0kAwSwXSq3p0YhP7bvasC2vwSjgXfRBAbn2lsex3NSqNnsbkr7jAPSOUBEbnaFmzTNu3GZ1JFumjiQkK8Q2bQyZ+vvu05SkBb15GleKeSqSzswsEspoeE9ftemykC4UuSaN5sFPMXXd9ClAedkVmqfXGN45I2UzsXltmTt1YXM5l7Nl6ubqC9fhcFL3chQT2K/ij6TE+xZOHF/eUWM0oIyO5ZSbP69aTnlBICumjuEq2VL2WYVC10SvplzjXA1CcymoYthuKEGlRyMmc5cqYVshg73ziNfapmnO53NoAUhtDjVkAMTRp81JATvlimGnQs5SL+xvOOfG1OXmRijajWf581UEyNRfReyHvKYkKXg/cvRDGkqYPiLpLDGjYTrTfIRkNzQNYEU3D4q9KBPSM7qmPgwDTgOjgxkb9W6aROQB198qpoP8W9Uy+5EtU9fVLPEFXn3hqVBcoXfegBwDwJ2kUbnXgMiFHGp+wzBWSUEgK6ZuvoIkARDPURhg3gSOaxNegZScmbIkoWjrlj/va22R1Ibswayr84jqRw0CkTvuRFhHUKihxHnNrBO5A3mBPKPdz7CQG1Mfvb7NEMMNmUSm/r6zNCXJy0bSFY0melWFkm6qEjFvhsWDIYaNMinKQ3pSZh28chh9qZ/S+tBGZEResTIFhC4yZ5hauf3Mk6kbpmu+S4fIh+IKZd7AHAPADUtU7jXA2I/X2Kj5DcNYJQWB3Ji6yU6jCQoDzJtbkNd6BVJy5ktMXR8MdYeDaStkD04HLt3HHuG7zlx36wgKNfQppo5e8A5z05Br6qaPZMXUJXgiHt801DkYT6b+vhc0JcUzl9uAMlHzajBXMiUZ6WpKURS6CQHTrnd9qG1bTe5FUegNU7NSgnq8c4DYjHk8JIZ9qarKu1g+DIMuR0U2/SPyLmhyBHuHK74h+TyPL8nU9dksgTcCCIace5mKjvZea5mdMxoJ9/tdXieqR7w2mL0r7pYzNMA7hUc0pISW1yoeTEdgeabuUk9jLb5ZKJJ5pNZoAsd86N2g1XUdKtEE9fz2p7ZhNGqK1rNa0CuNUF5Fe0J0Cu1xnw5CDTrLqAFYUJtDDRkC7R2hohBnH1cMh/mreQYN3mh5GaZ+vV6bpom/a0vCb3TUbBTnTMwmU3/TEZi5XmXqmsvkVXERCzAZualqGAbz7gJlyYaL4PvF9eW+bmq+Xq+G1mOuVOWuwdhcKEHLp1u1797civtkIjOTKnHv0opthgt6oXN7keGRJZk6BlsIWPfFdm6CNowfw0aIeFmWSIxut1vf96fTSUJCtsBGvI9x6yUN2BHX9eYrtiZcR0MrwyDZnElLMnVNTXGUEhOdKMEgMfEjAuamDX71Qt7ZVZYlhrEw7MfjYR5/H21IvsepqxLuVavYg7OV12BFSVp0R82oBm/H5aD7b3yEqjxmEkwjIoBnzRSckme0lY0WFmDqhl24b/DUl5B6Xy63UWDzNHt9pm6iIb6cFgfx559/1tT2008/xYUnnsXMjovZo2pNTvSuuKgSTcFFUXizJwoY1oJkSL/5ItODjCvTBZExuR5XT0Pc2nztz5ihfZHrCjTYfMVG15m8LzVTPSZg9LgWDE3X9SoV2FBhMaZuuIWXqbdti/TCGzB4V0QHo3wQVwJSXhyBU7WI4VtixINN0xi+bt6xGHqmDWPMjBqNMWnUECMTWu57LTYUOTmbuiRT193MJhIMPvgIfnwOQs4qUeSV13Z1FDTf/mTUyO0jPaUFc0tTj0sBF1zE/ufzqUPS1MUOYkp0mTqeDb2BAGUiNyjM7OZFZhgGHKERs7Vr3u9w691XRenVPIMQba68AFN3JwW5g6ov4xfkve/h3RyemRu8JlPv+/7xeOBoFMobT6kRQJdh6m3buhxXIrht21BuEp56u90wSUmgV1V1v98NRdaVb01DdV3rJyHcr/y417v4mjBVInaKkWbKMbxHvn2NFeVNLG4Hzet4ZXkjxHIM2RKPN02jYdA0jYECPY4zk9h2Op0UltPphNcnZVniFmTUs5XyAky967r7/a74q8fxQ1fn8xmBFZnz+ewGgwCrt+NVmxR0YcyMIKTpogEdLRTHWIjrlOrN+KgxlwdmgnGvQ+KhqI2y8CoCyzD1ruswzKqqMhd+xmwRjqxHDMPweDzcgVDXtTtnmVs3OhA0bvHaQM66nFVrCVUVlq8ZT5dR4iuaslSvqspvn6mWnGnGdShhGg3C5t0M787m5mNPchlvrmHKsnT94n4tRJZvTMKZnmdMDGzo5wJMfRiGEMISTkJdNgTadk1djalr4ogUXoV1bqZuZvp0y3HCiNTShfO4jJ6VDWT3+93kL8VNiIteG+iHrFVAbiBK7sbMG++prsrE+6Vi2pwW2rY1Fxt1XZ/PZ3fCwyra8UihLEt5iZib/VXVhgqzMnVzqRZBVU4ptpGQU2zbtlUmIQGGF2B930uMyRcTQwH8eDwMmZA4cTmNefwu1BdZdbter2hMPNp1VGrXWJiIwNxM/T2HyhotpkHtZvpIwQwmdFOZfV3XZuFA1zhC+4AxjOXBUBwOZVmeTifvWBDL4/lZleuYcodhXINeeI/iI/Zoi96Caou7T8VE50fyjDp6Q4VlmLpEnVkCa5rmcrlgqG8It42auhpTnwOvuZn6HDZTJxGIIDArU4+0y1NEYD4E5mbq81m+sGZktAs3zeYyR2Axpp45Dgcxj0z9II5mNzeJAJn6Jt1Go6MIkKlH4flxkkz9BxYs/TYCZOq/jcfOf5Gp79zB7N6mESBT37T7aLwXATJ1LyzuQTJ1FxMeEQTI1A8VCWTqh3I3O7sxBMjUN+YwmpuAAJl6Aki/ESFTTwTqgGJk6odyOpn6odzNzm4MATL1jTmM5iYgQKaeANJvRMjUE4E6oBiZ+qGcTqZ+KHezsxtDgEx9Yw6juQkIkKkngPQbETL1RKAOKEamfiink6kfyt3s7MYQIFPfmMNobgICZOoJIP1GhEw9EagDipGpH8rpZOqHcjc7uzEEyNQ35jCam4AAmXoCSIP5Bid+ASClOmX2jQCZ+r79a3pHpm4A4U8ikBECZOoZOYOmfAgBMvVRIPEbvbKyXtf1Pr7mNtp3CqQgQKaegtJuZMjUd+NKdmSHCJCp79Cph+8SmXokBOJf6CyKwnykM6KKp3aMAJn6jp3rdo1M3cWER4hALgiQqefiCdrxOQTI1D+HJTUdFAEy9UM5nkz9UO5mZzeGAJn6xhxGcxMQIFNPAIkiRCCGAJl6DJ3dnSNT351L2aEdIUCmviNnsivfESBTZygQgYkIkKlPBHBb1cnUt+UvWnssBMjUj+XvY/SWTP0YfmYvZ0SATH1GcPNTTaaen09oERH4QoBM/QsJ/r8fBMjU9+NL9mQlBMjUVwJ+nWbJ1NfBna0SgRQEyNRTUKLMthAgU9+Wv2hthgiQqWfolPlMIlOfD1tqJgJTESBTn4og6+eHAJl6fj6hRRtDgEx9Yw6bZi6Z+jT8WJsIzIkAmfqc6FL3OgiQqa+DO1vdEQJk6jty5nhXyNTHMaIEEVgLATL1tZBnu/MhQKY+H7bUfBAEyNQP4mjpJpn6odzNzm4MATL1jTmM5iYgQKaeABJFiEAMATL1GDq7O0emvjuXskM7QoBMfUfOZFe+I0CmzlAgAhMRIFOfCOC2qpOpb8tftPZYCJCpH8vfx+gtmfox/MxezogAmfqM4Oanmkw9P5/QIiLwhQCZ+hcS/H8/CJCp78eX7MlKCJCprwT8Os2Sqa+DO1slAikIkKmnoESZbSFApr4tf9HaDBEgU8/QKfOZRKY+H7bUTASmIkCmPhVB1s8PATL1/HxCizaGAJn6xhw2zVwy9Wn4sTYRmBMBMvU50aXudRAgU18Hd7a6IwTI1HfkzPGukKmPY6QSTdMUaX9aRQrX6zWtXtG2ran79s+2bRMbvV6vppXEik3TmIr8+VkEyNQ/iye15YDA3Ew9Pd+OJroc4LrdblVV5WAJbcgHATL1fHyxgCVk6i+D3LatdyZomubxeHRdF9LYdd39fq+qykwPVVXd7/fn8xmqOOV413WPx6Oua9NoWZbX6zV+YdC27fl8NhWLojifz23b9n0/xTDWTUGATD0FJcpsC4G5mbqi8Xg8yrLEDFZVVRP9M/lZVa1YEJPiuXpF89j0KgiQqa8C+1qNkqm/ibwh62VZJjJXd6k7Qu7fNM6p1ve9mbHcdXSn0vcD5k7C+XwOSfL4xxEgU/84pFS4OgKLMfVhGB6PBzL1lLzXdd3pdJJaiVl9PkjVfibe+UDeomYy9S167W2bydTfhM4Q7pfSKM4ci93WNIQ7/fLAXJPc7/c3IWO11xEgU38dM9bIHYElmXrf95hvU5i6wCdkffWVbMzb6Uk79wigfZMRIFOfDOGWFJCpv++t9yaAYRgw+S621dsQ7vRum2uS1aeudMt3IEmmvgMnsgsGgSWZ+jAM7yXq5/NZFJ98cMiAkPJTbFD70y8zUpRTZtMIkKlv2n2vGk+m/ipiP+Q1gRZFkZ5D+77HrZD5M/Xb7YY9JVP/EQHzl8jU58eYLSyNwCaY+jAMZVmum+7MY0JlWS7tKraXKwJk6rl6Zha7yNTfhxX5azpTN8k3c6b+fD7NBvd1p673vbXNmmTq2/QbrY4hsBWmfjqdVkx3Zt+OTDfcfBgLrCOdI1M/krcHMvX33f0GUzfr00VR5MzUzfK/9HfFqet9V222Jpn6Zl1Hw4MIbIWpBzuwyAnZr9g0Da6V1HW9SONsJHcEyNRz99BH7SNTfx/OV5m6bPg+nU5b2acudpqrCzL19yPm9Zpk6q9jxhq5I0CmnuIh2SR5v9/NI0bMwCno7V6GTH33LsYOkqkjGq+VX2Lq8p7Euq77vt8EU5fp4X6/84nS18Lio9Jk6h+Fk8qyQIBMfdQN9/u9KAp5M1jXdTjXvPSesdGGKLBRBMjUN+q498wmU38Pt9/Uwuw5uk+9ruuyLOXzRvkzdXmJr0wJZOrvh8jkmosxdbNuh7EdL3sjX76ZhXFelmXTNLfbLfSmucRWUKdbRYwZ7Yu4xQS2q03E3OPmSGiNM26qvlckLqbKvWKL7Z2bHMi/pSBzpn799vdbFi/+Q75Vp4NL3+8usRcaRIubyQZXQ4BMfTXo12iYTP191HHC1pTqVXe5XIqieDwechYn3cXmWkNfvHbKwa7ryrLUDZGG0Ch1iGjgqU8hsBhTH4ah6zoJVHl8QvgK/ovvLKrr2hsJeMuormupbnhG6Km4ruvM89ZlWeqoUUj7vjc7ssqyvN/v5iM17vcpz+ezS3Gez6f5gu/pdDIfDE40TC3EwvP5xPEu2Br9z+fTQCRipkc4Epum8eKPTWdbzpypN00Tz+dzA6uO1gDQIzLprGve3N2n/hQEyNRTUNqNDJn6+65MZOpyH/NyuWhLOHPnxtT7vpflf+U0ZpLYLj9Q/DdUWJKpCyxC1r1UAOPWJdDDMEjwyLgw9+jNS4QiUYS8OcTph2FAaouDC52r33fUjQR4VsvmrdVKj1RACnihEjHM1JJLIMwVOrKMpLlKcTulLwMx2Bo9+f/MmalLMHjjfzFgJRKMlzH8+LrGxXyRbUNk6tm6Zg7DyNTfRxVn31BmF4Ji6DgyHnPqfWvGaiauqcskgUSKTH0M2hnPL8/UZVOsN54xbjFCtP/INfWgFuSSVUbN6XTS46Yw2orIYzx7rR2GAUM3PtBwLBt79GeiYSqPhRT95ptoZVmaawbpst7sQv3bKufJ1Luuu9/v8qKVUEQtgLPuSjc3XnD4FEXx0rXiAmaziYURIFNfGPB1myNTfx9/nH29mV3Xp82Mi1N+nEC8b5xTE5lNURTO+d8ckMnA9AXpjm6u9VbnwY8jsDxTlwcwTAxIvzBuTUiLAL5OzoVCl4SLoogsCmIr3usB0Yzx7F3gf4+pR3hwomFux80zLV4BOSgbzzSx4PWMrPW69D2iLdtTKzJ1xTZe8Mb/MnjKTS13XpB3EqjZkUBdxk62si4CZOrr4r9w62Tq7wOuSTP0jVK5QW+WRszKmZuR3zcoWhOZjZepCxVAciD6yNSjuM57Mlum7u22MvUQEVcBbwSKzkRCjPEcIvQYuvGBpmM5IpZomBcZ1R/puFQ0S6dyEaLbikI99Taa7cEVmXpVVU3gD4NzLaaudNy7ZI73rLhokm14L2MYmfoyOGfSCpn6+47A2dfN7PLQ2+12cxvAKT/CDNyKU44gs3HpgnzkqKoqd60U6Q6nhykueKPutpi6bB6Q5zu9ncXI9wqY69gIMcV4Dolh6MYHmo7liBgaH2ox1CnV7w49twpuwZchGXl4wK2e/5EVmbqbqBGutm2Fr8fFsMpny3KdJi9ndDXrxhgJJ7OR3ZXnkR0jQKa+Y+e6XSNTdzFJPYKzr8nsQhFCmRSn/AgzSLUjTQ6ZjUsX5Et47vK/2UJApp4G9sektsXUR7uNkR8SRpkIIcZ4DoltlKnrwqpkGAFksUQR8ssHj2fL1DXdmXz+wb7HVcljo5HWcXQURRF6OjneCs/uAAEy9R04Mb0LZOrpWFnJEFPXtxy669OiArPtYhMwMhvD1GXFznu/Vacu7WyIFVl0+PsTCCzP1GXdzutljNuXOtf3/f1+x5e6mAhEbdiK1wwRxngOiW2UqQ/DgG+tkW39oWSC0G2lnDNTH4ahqqoIV54PZA3XiK9NYKxi53wIUHM6AmTq6VjtQJJM/X0nKnk1+9TxI0de7chFVmfq+JEjr7U6f0h/Q6zIW5cHJyKwPFMXd3u9jHGb2C/5BJJETtM0+Ka5kAZsxWuGVNw3UzevodzZ44OZM/W13qcukR+6E6vjBQdR6IEQFWZhrwiQqe/Vs95+kal7YUk66GXq8tBP6GUUohe5yLpMXV4iGecBZOpJ0TCP0PJMXZ6v8K7qYdyOdvd+vwulkBVKuU2fogFlcIhFyiFCb0I3okFPRcZjxDD5AuvlcgkNfNUfuZlgIDV7YPa0epo5U5fPdRl3zP3T7EHHgImXQ/dC5zaY+tdFgEx9XfwXbp1M/X3AMYHKPCrPA7mfLDFt4JQfYQam1sSfuAYpdEFfIhnf7GjoTogVTTSP1b0ILM/Uz+dzaKEO49ZrrRxs21Y4uvtoaYoGlDmfz/iRVCyjWCgmMXTlggE1YFnHcmQ8Yotq2OVyMbt6qqpy7VH96UzdfI9pT4+IZM7UI7E93ylZ4om8mgbfWIPhFF9nmc9gal4XATL1dfFfuHUy9fcBx3R5vV69HznyascpP8IMvHXfPugydZkbXFZhmkC6sye6YLqZ58/lmXpd16GYxLgNwSXPPBRF0TSNuzCfogFlIsGJ8RwSw9ANdUo6omM5IhYxrOs6PFsUhVlcV/2JTF3exVSWpfsemBDyGzpOpm6cpfdPTNgYMf2JUcGcrLAcqkCmfih3k6m/726cfS+XS1VVid8lwUk9wgzet8xXE5lNURSyySHlljrSHc4KPmhnPLYwU5ePE4WiAuPW22d933Nd1y5NN29g9GowMiEKPgwDxnNIDEM3PtB0LEfEsPveFlHAvGhP9ScydaFij8dDKLtWH71fF0I1q+Nk6sYdEswmZowM/sTALopidGs71mV5HwiQqe/Dj4m9IFNPBMojptOnFrxvOXRr4oweYQZuxSlHkNmIwe5Hjrz6zazg5Sjeijw4HYGFmbps3wqFMcat2zWMk9De2bgG0YkykWDDeA6JoUnxgaZDOCI2aph5LwdapfpTmLpcRSspx17s41J5W0z9er2qL9yw/8gR2S0WGjXeJsyeK++FsbciD+4DATL1ffgxsRdk6olAecRw9pVVao+Q7xBO+RFm4Kv6/jFkNkVReD9y5NW+P6Lg7WaeBxdm6qfTKbKwh3HrwqUL6hE2GdcgOlEGya5pEeM5JIahGx9oOpYjYqOGyR0JVYW3JvTgKFOX7elm87HuKdrHGxs3xNRlX0ro2tXE5Hs/5fI49HBISKfU0rjCYAtV4fE9IUCmvidvjvaFTH0UoqCAZsmiKBLXp0UXTvkRZiDCz29/QSOSTyCzKYoife5BuhMhYcmGUPAFBJZk6vL2icjyIcat2wc8G6LOKONqkCMoE9KT5+4Xw9Tx+8SYK0IdH4ZBt6eb4Wn2wLyUbSLNrXVqQ0w9cu36qcwsAf8G1X7pdY1937dty6X3tWL+4+2SqX8c0pwVkqm/7x2cfV/Ks3jjMs7UlbV4n897yXTD1NPrRu7ppyuh5HsILMnUJUIiLwLSaPResOFZ78ZZ2dSho0ZJg7npj3q2xdTNSEG2rb2Or6nL9nQDiESOuWBOfPTwvaibu9ZWmHrkXV4apRMzs7o1Mu5C7sA7LUVReMNG6j4ej7Is5YZMRCzUEI9niACZeoZOmc8kMvU3sdUMK3PwS0wdp+3IZgPDbHCJ7g2jdWqR1tM1GIrPRJ8O3XTJxZi6vLnIy7C1FxhCLoc2vAFHRNu2TdOUZYmrgLfbre/70+lkGo23osZgc9iWCpjP60Yuic1aOGrActwweeepDm3TnB6PMHUZ75H1ctxfVJblG9wOu7NieUWmHrllZADR7SV4xSUyH8zMsmpjosVYEvpp5qDI+wyEpksQvrrNJtQ6j6+LAJn6uvgv3DqZ+puAG/5q9pVGlJqFt6IoQjOuaSJERyJt6Sl9C5gyhvQ1ObwDwPcMKKTLFJZh6l3XyYd1Q6EoncX53r1gcz/dIi+HFnYuS49IdiUU3bfExFtR2DEsQ/QLGVXkktgMSV3s17bc7psLFQFQB5eh0ebN6F6QlRcazWiDYWYudCicc3lJpm6cm/J8Ttd1elHkDZtPZWbVkz59oFtNPESSs0amFFAJyxtFgEx9o457z2wy9Zdxa9s8nkA6AAAgAElEQVRWMyxmwNPpFN8I+Hw+b7cbEhGpXlXV/X53V2508hYxlxulmN513ePxQFoj2uSrNG6jqrPv+8fjYV7cK3XP53O8p6qEhYkIzM3Uu667Xq8Sk3Vd48eATNlEQlmW8g5B7KCJWImWoij0ItMMHMM1kSFplLqXlH3fGz0SzIZh6x1/NeN8PrssuW1bMzpOp5MZF65hiJW5/DDbIVz9TdOg/r7v8YqiaRrXSNnCrvRRe1TXtYsPeiTP8jJMve/7+/3u5lv5oCx+SAjLRl5DF5E0cf5GZm7b1nhzdPpAAyQ5m7iVqGiaxg0JvJflvfZA5SxvAgEy9U246VNGkqm/gKSZknW+dAtGqSEWrrweMStqwqLKsvROGKYV89NdcdFWTMFVbgRCP9+7aWvs5M8IArMy9fSwDAUAsnDpRdu2yunLsjyfz4aVyiCSL4Yit440ga3Ex6BE8mi/1NR4oyIWl5GzcvdAPn+m3oybqnv9vWImD4yOZW10E4W5mfpoAKT4VGS8V03yQHP57c9NnqMu8HpcTRpVmNg7DKHn8ymNmqvEUVMpkC0CZOrZumYOw8jU50CVOonAZxBYjKk3TeO9sWO60bbt/X5HqjFKLIwG/iQCczN1IkwEdo8AmfruXYwdJFNHNFgmAnkhsAxTf+P2vW4AIFPPK2K2YA2Z+ha8RBuzRoBMPWv3fNo4MvVPI0p9ROBzCCzA1EOPY452Qt6+QqY+ChQFDAJk6gYQ/iQCryJApv4qYpuWJ1PftPto/M4RWICp42bxl9CUlxuSqb8EGoWHYSBTZxgQgYkIkKlPBHBb1cnUt+UvWnssBOZm6hOfCW6ahkz9WBH5id6SqX8CReo4NAJk6odyP5n6odzNzm4MgbmZ+kSeLW9y3BimNHdtBMjU1/YA2988AmTqm3fhKx0gU38FLcoSgWURmJWpL9sVtkYEviNAps5QIAITESBTnwjgtqqTqW/LX7T2WAiQqR/L38foLZn6MfzMXs6IAJn6jODmp5pMPT+f0CIi8IUAmfoXEvx/PwiQqe/Hl+zJSgiQqa8E/DrNkqmvgztbJQIpCJCpp6BEmW0hQKa+LX/R2gwRIFPP0CnzmUSmPh+21EwEpiJApj4VQdbPDwEy9fx8Qos2hgCZ+sYcNs1cMvVp+LE2EZgTATL1OdGl7nUQIFNfB3e2uiMEyNR35MzxrpCpj2NECSKwFgJk6mshz3bnQ4BMfT5sqfkgCJCpH8TR0k0y9UO5m53dGAJk6htzGM1NQIBMPQEkihCBGAJk6jF0dneOTH13LmWHdoQAmfqOnMmufEeATJ2hQAQmIkCmPhHAbVUnU9+Wv2jtsRAgUz+Wv4/RWzL1Y/iZvZwRATL1GcHNTzWZen4+oUVE4AsBMvUvJPj/fhAgU9+PL9mTlRAgU18J+HWaJVNfB3e2SgRSECBTT0GJMttCgEx9W/6itRkiQKaeoVPmM4lMfT5sqZkITEWATH0qgqyfHwJk6vn5hBZtDAEy9Y05bJq5ZOrT8GNtIjAnAmTqc6JL3esgQKa+Du5sdUcIkKnvyJnjXSFTH8eIEkRgLQTI1NdCnu3OhwCZ+nzYUvNBECBTP4ijpZtk6odyNzu7MQTI1DfmMJqbgACZegJIFCECMQTI1GPo7O4cmfruXMoO7QgBMvUdOZNd+Y4AmTpDgQhMRIBMfSKA26pOpr4tf9HaYyFApn4sfx+jt2Tqx/AzezkjAmTqM4Kbn2oy9fx8QouIwBcCZOpfSPD//SBApr4fX7InKyFApr4S8Os062fq/+82//7xH/+x+Pr767/+6212glYTgR8I/OEf/uFXRBf//u///uMES0Rgswj8y7/8i0b1n//5n2+2HzScCKyGwD/90z/pIPr1r3+9mh1seBEEfvnLX6q7WSACRIAIEAEiQASIABEgAkSACBABIkAEiAARIAJEgAgQASJABIgAESACRIAIEAEiQASIABEgAntA4P/e5t8f/dEfKfp/8Ad/sM1O0Goi8AOB3/u939OQruv6xwmWiMBmEfjjP/5jjepf/epXm+0HDScCqyHwf/7P/9FB9Pu///ur2cGGF0Hgd3/3d9XdPwrrPN06udWff/5Z+/DTTz9N1kcFRGBlBPjul5UdwOZnQIDvfpkBVKo8FgJ898uh/O1/98tGISBT36jjaHYIATL1EDI8vl0EyNS36ztangkCZOqZOGIZM8jUl8GZrRCBdxAgU38HNdbJGwEy9bz9Q+s2gACZ+gac9DkTydQ/hyU1EYFPI0Cm/mlEqW99BMjU1/cBLdg4AmTqG3fga+aTqb+GF6WJwJIIkKkviTbbWgYBMvVlcGYrO0aATH3HznW7RqbuYsIjRCAXBMjUc/EE7fgcAmTqn8OSmg6KAJn6oRxPpn4od7OzG0OATH1jDqO5CQiQqSeARBEiEEOATD2Gzu7OkanvzqXs0I4QIFPfkTPZle8IkKkzFIjARATI1CcCuK3qZOrb8hetPRYCZOrH8vcxekumfgw/s5czIkCmPiO4+akmU8/PJ7SICHwhQKb+hQT/3w8CZOr78SV7shICZOorAb9Os2Tq6+DOVolACgJk6ikoUWZbCJCpb8tftDZDBMjUM3TKfCaRqc+HLTUTgakIkKlPRZD180OATD0/n9CijSFApr4xh00zl0x9Gn6sTQTmRIBMfU50qXsdBMjU18Gdre4IATL1HTlzvCtk6uMYUYIIrIUAmfpayLPd+RAgU58PW2o+CAJk6gdxtHSTTP1Q7mZnN4YAmfrGHEZzExAgU08AiSJEIIYAmXoMnd2dI1PfnUvZoR0hQKa+I2eyK98RIFNnKBCBiQiQqU8EcFvVydS35S9aeywEyNSP5e9j9JZM/Rh+Zi9nRIBMfUZw81NNpp6fT2gREfhCgEz9Cwn+vx8EyNT340v2ZCUEyNRXAn6dZsnU18GdrRKBFATI1FNQosy2ECBT35a/aG2GCJCpZ+iU+UwiU58PW2omAlMRIFOfiiDr54cAmXp+PqFFG0OATH1jDptmLpn6NPxYmwjMiQCZ+pzoUvc6CJCpr4M7W90RAmTqO3LmeFfI1McxogQRWAsBMvW1kGe78yFApj4fttR8EATI1A/iaOkmmfqh3M3ObgwBMvWNOYzmJiBApp4AEkWIQAwBMvUYOrs7R6a+O5eyQztCgEx9R85kV74jQKbOUCACExEgU58I4Laqk6lvy1+09lgIkKkfy9/H6C2Z+jH8zF7OiACZ+ozg5qeaTD0/n9AiIvCFAJn6FxL8fz8IkKnvx5fsyUoIkKmvBPw6za7G1Pu+v91uTdOUZVl8+6uq6nw+Px6Pt5H4+eefRVVRFD/99NPbekIVm6ZR/fGC0XC9XuPyerZtW1OXP4+MwNxMvW1bjb3phaZpjuws9j0RgWWYelVVak/f9/f7/Xw+mxzeNM3lcum6TiVZIAKbQCAfpn6/32XuuF6vm4Bui0auw9Qfj4cSdJcf1HX9fD7fQHNupi4mtW3rZd5N0zwej0jS77rufr9XVWW6XFXV/X5/r8tvoMQqG0KATH1DzqKpiQgsw9SLomia5nq9nk4nk3Ldn5fLpe/7RPspRgRWRyATpt51nXI5MvX5omIFpq5XYG661CNlWd7v91e7vQxTF6sMWS/LMjHRu6uYEXL/KgKU3xkCizF1uc50Y9jEuQtv27aXy0VHrivAI0TAILAYU9ewrKrqdrvhasjj8TifzypQFEVd1278G8v5kwhkgkAmTL2uax1EZOrzxcbSTP3xeKhf67q+XC7X6/VyuaC/RaAsS0ysKRAsydQN4T6fzykWiowiUBQF3qJN10DJgyAwN1OX8Xg6nUJ4jjJ1qfh8PmVlJaSHx4mAIrAwUz+fzyEKbpaNIgNBjWeBCOSAQA5MHddoiqIgU58vMJZm6rL3o2kadyG5bVu9jSJctq7rl3q+JFMfhgEJ90sxinslubX3JRcfTXhupn69XuO3gxKZ+jAMt9utKIqjOYj9fQOBJZn6KPk2Ec4nhd5wKKssj8DqTN0sVpKpzxoDizJ1WcCILD/3fW+2cb/0gOkmmLrpI5n6rPG9deULMPXIeByGwfCYCJ5935OpR/DhKUVgMaYevwoVeyRuddlllNlrL1ggAisisC5T7/te1lVxgnhpvXJF6LbY9KJMvfn2F4fp+Xxq0iyKIk4jjKpNMHWzOZJM3TiRPxGBBZj67XbDFk0ZE/EoEX/1Jphpiz8PgsBiTD2ROuBNTm5HPEgQbr2b6zJ1GTLX6xVX1hOH29aRX8X+RZl6URQpW8/xUf2XiGz+TF12COClyEsdXCVE2OiKCMzN1Ee79hJTH9VGASIwDMNiTN3dY+nFH5n66OWoVwMPEoGFEViRqQuNEepCpr6M35dj6m3bJrJSfMonsYqAlTlTl5g+nU44MbzUwWVigq3kgwCZej6+oCWfQmAZpp5+hwffZ5Be61NoUA8ReAOBtZi67HrQfWVk6m/47o0qyzH1dOPQ9y8R2ZyZuuzrkheBkamnB8PBJcnUDx4Au+z+Mkw9ETqzT/2l/ZaJTVCMCHwcgVWYet/3clmrDxAiW+Pul497WRXmztQvl4vaOlrImanXda3vnRxl6rg9JlQuy1I+sDf6soKu6y6XC34OVr4JcrlcQpuR0ELXAL18MlsjjKSKuY7zfqH2dDpFXqKPGcE0hD+rqpLPnSTe+HZty+rIPph627bn8xlXLl/9NuQUDV3XXa9XCQx17vP5PJ/P+rKppmlCsZc4FuLxGRoL3g9nYjxrOaRBe7ShQlZM3SSx0bxxv99Pp5O++UDy8O12874IUt2HhcSt8F3XYS0tS8I3ZutZLUg8xMMyvtXnpZ5Kc9p6pJA+c+k0oWjLa+8nfst8QyMlYuoqTF2eskNWhgFGph7x18RTuTN1vXRL6We2TF1eO6p9wbk/NAH3fW+ePT2fz9dvf4b0FEVxOp2888QwDPrG06qq5O31SFAiz+xKljQJ1zshuV+cvV6voQmv73udY+q6lh7hkwlVVSlQrtO7rkPCJ2+GUiWY0Pfx0qitM/Wu6zTa5YFyJccSWqPJvW1b8XhZljIELpcLOjrytuzH44GhpWNNI9CEd+TryO4TJt6xcL/f3Q56x+bz+cReaO/kogINu16vXg3u6NjKkXyYunmBQTwa27YVlwnX1MAWZ5Vl6U1cbiYvimJ0eQVTt+j3Bqf7auPz+ezm3ufzadLm6XRyxTR+NIy9s0ZZlhGg3P6+N3OpDTo0zMA/+Jeqlmfq8vENsz2MTF1HzayFHJm6ToqJaw8KUJ5MXbbd42UopnhlD9oLLGB6NcndcFbvy8WU65ukpvewZA6IpF0l+hFOr+/S1hkFu4Blbbcsy3h3EC7UMAyDuVttzpqpK/5iE1M3w5+bZur6OSTDNW+3G9LZyH4DfWTFpeOaJeTzYebu0O12Qx4skSljDUNajuO/uv/SDQasGLEZxcyspjoVGWna9A4vJLzjWvVstJAJUzdxGMk5wzBIKJqPZ/d9j+4uiiJ0ZwYzeTyXqk9xjETIPX5MMDJjIqMqiiJy7aezhkmehoI3TRNRgv2Np3pvhOvA1xvRCouaJ3eG9fjRCgsz9a7rym9/5gIP4ypCJI7mnY/3N0emrstgJlOMdj5Dpi5TsqHj6UwdJU2+E86K2dwIaLLzZnm8tVqWZQhbJA2RcYjD1XRWNStND70CCAXiK+JIrVS/FtCYCPFS+ZwL22XqSka93MWsZXpHugawdy5X8iTBYBzddV3f9+ZqtmkaXRa63W5t27qflI9M/x8cCziuXTaf2FDOcRu3bUWm3nVd27a32w2pZPw+nkaayxqlm3jRGEpu4nFM14bxGMT0wkBzXYgWY7oL5V5Rrqoim16UB3uH5DAMKhAZKcMwYISbiWl05sK5yTvp4EW4uUQ3MO7458JMXcaLe9cIw8/rrB27YMmuZcfUdcU0sjwQAig3pi7U03AIk8XiuTWe78wdUrMmpBc8XqY+DAPOVaF8l0gacLgaM9RZuvgUWY80BM5N8aJtdMrBrrnJRU3Kv7Bdpi4uiPgap3x3jMgSjjg6wmkwyL1DCVcc5VkRdzox92FCK6OJYwF5m3csmCB3r2QSG8o/ekMWLs/UMUFh9jBr5F6DNRRdT6k8ckdvHEomx5h341C1yRxR1zXmfzyLZeyat2kV1o67F4cio4MlMvmaL/eFeoGWe9O4TgdFUZhhgiPIqx/rhq4otNd7LSzJ1CUjeZM5hp/XWXvFf+F+ZcfUdZZ6g2DlxtSFRrgkGLNYPLeipDffKVzuCgeSGNeGYRhQwKvcfKIyMg5Hhysuk3iN0bjHySw0YeiUE1ocQtwiZmuj2RY2ytR1OTzia5URb5rxrmEQWlAXl2FceRk2RqZXQPQoRxFjvFQGx1ooqIwer5gxyR16KQ1lG7Ephi3P1OWp4uv1ig+Diq/Lb88/RK4GJRQjNx7NSrN3b4lkJAzXUHIbhkGu5e73O+axELAYTvHZRNNmSEyvN+L014xcL3RouRvhZmYx9iBT91qCAt4hFsJqT8cXY+oSYGYDrSKJ4XdYXyga8xXyYur6idr49ByCIyumLtnEm2gwi5kkZbqGkt58h6sL5pJXH1kzKxbaBBICr3KTTyPjcHS4KvEKcWu1yqw4GgInYjrlhLThmnpkJUwbzbawUaYuF4FxcoMxYzY7IaGJRJ14DS84XYaNraSPtaIoXP6B48VrlWz4UbpjOqUxhiZ573eNNqSqNlpYnqkboIS4416UyOK6iMWnJHSZ16eSyc0NVW9yE94vd5kw/5su6E8Mp3iEa9r0iiH/Dk0H2ihC551f0HKvtsjM1fe9VA9thccue0ei2rnjwjJMXShZaN/XMAz0xTIxlhdTl9FbVVVoT14clHyYuoSvoc5qPGYxb9L0Srr5Ti9sJAW/SklxdnGViw0oE8mJ8eGqO5rchX/tKRaQ63gnSJ1yvEwdjfFSLmwr8/IWmTq6Gz0VL+NAwFk8FJnqOGQY7i5hDAZsQqtrwSyHu6MpPhb0gwmoxztkDD7uxXy8ITV4u4XVmbpAp49SaGS6TkdvqthowfW75Hzd8i4avAEpgST0F2eKkLvTI1zN9raLqxuhtvQ4rrx4L8jRcncIT5y5sMsu1GrkvgvLMHVZB3HHhWJLXygUsxYyYuri8sjV2ygQmTB12dcYultkllW8SVN7Gs93mC7jelShFMzb67yLQCKZSBriwxVnuxQ7sV/eaUCnHJeppz+WajDJ8+cWmboGQ13XbfIf7pNB0uBO88ZTuABfFIUhvmpMylUixpXLACJjQZ9IkQcWVY+rRIzHSxF3j36kIdP3jf7MhKnLPhNcHnav9NQX5/O5Tf5zb8goUx+GAVciXEm58pTjmP9Dvk6PcA1LNwmbq8dQW3o8fnls5jh3CGOGd43RVtyC+QxC6LaVW3F/RxZg6rIvwLtYpnhi+IXSnQqz8DYCuTB1fU4lcvU22slMmDp+5MhrM+bfeJ5CSc13Xdfd73dM9977j27T8gkkmZnkQzCau1W5qaUTVTwnxocrKon3V1pHeZeLD8OgZuPZ5/N5vV513o3czjZ9zPnnFpk6zuLvYYv+DUUmakZ5M1tgZI7GHg43oye+E+z87SNKcrGBLbpKxGxzPWmu6jH+Qxqw+5sr58PUjVvdyznllKPBE/eChJbIoH/d1I2f6MKADOnHeIsbqcPEFUMlmFRTGvUu9KDlOoTfnrnk4x4y5ZVliRvedjlAQrDj8bmZumxDHd3ggJFzWF+gX2Yq58LUZWBPoenDMOTA1CWzhzYgihcxi7lJEz2NkppnseD9HAZqkHLbtqKq/Pb4lFAKnDA0mZq6KIPtRsrucEUl8f6qtajfmGSYOkpqOfIpKFdbzke2yNTR3e9hq370kgBXJw4TE344kYzGXpwBYL+wFVkg19yFLaKYMdu8irssy9vt5g7MiAajcEM/s2Lq5p6M2S+noTUaPHH8RY/I4AK2uaMiwaOxpK1H2DPGW9xIHVauGCqJtIV9VG3eQYqWo6SWE2euruv0Yul0OsnEitbucoAgzqHy3Ewdk6F6Lb3gxlioIzyegkAWTF2Goru6kNIBlFmdqctq4mhHMIvFAxol9Utvl8sFj8s6UIhq40cizQdokHmEqqNM0zTyNVD3X02m3qV3VBJ544G6EhOxd9rAfKHGuJ9u9X6uT1vZRGHrTB33tKQDjv5V1hKpjsPBzNwYS/GxZpZXjZ7QWRnyuOUGW3SVmF4gEcFea3lUg1G4iZ9ZMXWzHcVsoNLQ8m7DS0db9Kg8JkyM8PP5jBlSW/emQdGG8RaPcA0qVwyVmGsVtdkUVNsoU39v5sJLWfNFVbR2lwPEQO39OTdTx9hDXyeW3Rjz9oIHExFYn6nLVBd6+DKxGyK2LlP3fuTIaz+OgXhAo6Qh033fIwM2E4y0qx9krqrK5UxY3ShXs1EmkhPjqROVRKYcbRS1eSdITBZaSwpd1+FigPsxVCOf+c+tM3WksOlQo38jUacKcZiYFjGW4mMtxMW1FQxjsUpuEJvchS2mGI+bhaqqul6v2J0UDWrhVgq5MXUE3Kw14Ck3haYDLnpUHoNEX1gka+3ocWxd65oCqopHuA4rVwyVeJm3adTc2HSRQcvN5JIyc+mLy7ybGNFahMs1csdHyNR37Fy3aysz9Q/S9HV3v1wul6qqzK1MF245glnMTZpYCyVNvhMxnOaLosBdN3oq9JAuMg+v8lHuoqbGUye+/jZlGkBt3sdZdMoJ8X5csirL0n1sSy3PvLBFpo7uwwXCCNRt2+KdKH3YwN037FWCw8SQBjQmPtbMd8TcEYHj5Xq9ypW50iw1DFscpRHm9SNivGlINe+msCGmjr4wl2Qhd1yvV8zDIiYhilXcx6alLUxWGNhYF8sYb/EI17Tpipl3447GLTJ172IKWu4OJfMOHDNz4aDAGw7aa+xyiqlacU+FuZn68/lsE/5wcsenrk0e3hPyq/RlTab+WZq+LlOXJJgYnZjF3KSJcYCS3nxnPjWq2vA1WKEJBiehkHKUieTEeOo0O0GRk2FntazXGN4bBThJhJg67gQ1i2TayiYKW2Tqxt3eudaAL/fH9SBeaHm/I6OSUtCnq13SgJGpo8NU15843NwXxeJYuFwu9bc/VwxbjAwZ+aY60jUVxob0oBq5g0JuTB2vDE26wFyUuC2kqio3nUpooe9Qs6ToqqpMrsaAxLpYxniLR3iEqZstQO71J7Y4DAOOce9iClruoiHaMPjRcq0bus7HLu9ygBi0vT/nZureRt2D9IWLyRxHVmPqkqdGM8JLfV5x90uIU3rt10w0umSIkqF8h/O6MlecBkK5DCumKA/pSfn8ASblUP5VrNAwlwmlMHXzmjCcBrSVTRS2yNTNrB+6paP4S67Hq1x8rWfkw6KqQSmIexGIE8loGChj85IPDMuiKEL9whYjQ8Ys4aNt2FBcgyKwrcLcTL1tW68HvSiZ5WRz0w8paVEU5i09rkJ5/ZR7XDI5HsfFFAly07RJYlgXyxhvGEUo8/+39/Y4swNNHa8DMiTAASwAS4iEzMFFLMAJEkgEswMkrwBpICCdhIhg3pDIK5gVOLjhnQ14B96Drzh1nnqL6na7x552f/j/BOd4PP1R9a/++LndY9MxdxNrMvnk0M1rElmpeQNBWe4zufDMJQW32ukz3Zi+l3cGpF5eTB0exSF1xnQrhylzn8+nWmlQCfhjRFL3nxjUKLY2GJFTu0ndZ7KXaXwGUwc0yIHbmkxeOWyyF2P9Wtx5yuHxndsAH0jp3CJzlgQPMiV1eUvUAbX8QGszQLxMXlWV+9JOYr3cOUDRlC3TrEVGXBKbtTvI/mJCFRcla7T2BUopzVYbtGRFjhK4xuwOQpM6PfNX/WJhTSX5sxZrY1MJHLBOo5w1ZCapq0u1uq7Ndi4HsTX7ZXtzt3AeNq3JJCJXVbU29pIZjPWmzZRAWm7tTWprJY/kPu7INFa117Qq6TxIvaRobvoSgdQ/xXTzbRRrXkUk9Y/GCybRr6ypy4mE71HIyd46mI7jyCuIcpug2qsgy3H46DN0yrHb8ZRWnjAcm/55yuHx3WwS0jtzqdVMn+aZTEmdX48gI/V4PBRJ8y+ezblctij3DSveKmNtn6ocx9IAl7N21S37gqNFyRqtJtHmAdk+1aqkrGithDSbq6dVoUmdrwAdYSJT1QqCHAnZF3kJR+2ZfuYo2xL/SnJt1LKSOo91VKx5aSHHTLZHHcj2ZkVwTs+d0TojmOgsb3NxIXTAF9Jmz6UE0vK1NNaZS7pjXdqfpklOoBzi968/ZWfBH0HqBQfXdO1sUueR8X6/8/P1rAe3242Gg7VhxXTmTFJXA8pHEyqPmNYlHOnX5ninZhE2Q67YVVUlny/OD4aT4x3RyePxUGp7QoOsbm22oFe3su9razZslcIXKQsXskbqak13baqQZaZ5HJ3U5Wzqs2WcZVQdhEPWtm3364/P8FzLeemA1+0cq/Lc8PgaVRWizOAOspbMcQ35xb7AjbyqKtN9z4qUCxl9PIHU+TeL9KJcqzh8ochNcW1QkhHhxLTO0nWdjObaqGUl9WVZuH9ZEV/WJS8MpDuyha+NvZReliZLkMfSl7W7B9wxzabLRe2eudRPjORj1+lyqK5raSR12NfrpW5MsSWlHoDUS42s1a9TSZ0xXQ4Zm8fmSoPVk5N/UarG7jVQME1ltmDH1UKjzCIX3kzcVOviygZe9qCK6rrmSYUe2qhcsPIQTyTu+6E8dtNWTumCPJY/6qd5TvrOiyXWJ3NxOerihM/zgcJ0x3TCWZI9iEvq5tL4GohYBfTp72tsRAXyOjc1TjUUcKC7rvPhGOoIJqzTNG9t/9Iv2RfW1t3VlgbVJak01VlMy6XXjoqkbXkdn0Pqy7JwZNu2pUeyjL/+ns+npD1qGO6BQgaFh251oG5IyqDQSG6O4TwdmB1Brbibeal87gXusWwhz9AAACAASURBVFeVJgdeaad6e676dew8z6yDW64jMxdXwfLytT1NDfLihNM4xJcOFnMMUi8mlD6OnEfqJhdyH3MfrI0ppnvnrKmP42j15Xa7jeNozrts5/v9fj6fcggjx5umGYZB3WrklW8WhyYbuv9gvuXnfr+rqhUWczm8vq7GO/ULOXqBM+eig+fzqWqhtSvllLnPgUWQb2KiMmmRlSfOruuUFJyXbmpzSsp+u934ngzfh6Gv6L2PMnt2xxFJ/f1+y4UxlnQYBrMNrAnLz0Wm7Opf92RPZaouQxecXddRk6vr2iRvaYxs5NTS6EYWv42Fm5MD9z37wjzP5jKtet2Y5CpzXx+VoFRy9CbpaUbHp5E6bTSSl1hKW/qoeHRNSTO4XJpjcUGO5HKFmGuhJRU16L3fb2W29eYAX4qwJXI85IHx8XhwO6eUjrfCyVcOsT7MytR9HFfs0l/K/unMpa4W2DVWT/0Yd/OHTyx1SQcg9ZKiuenLSaQu50vueD4HHy0phSZ1E1zWXFC6W8nempcWTqxfmSe7rrvdbg5yokGTMZrfxszm0fJeXddq4HZ7yvdY3X5xMq6OD8ZxVBcbbdvS01g5jTrwbEJEcn3fO+YSVXLKH6OQutnSrGfciCxVHYbhdrtxO6Sn0flfgRMoM53T4nfXddbrRlmvekwENUirMWsLlur336YOnHGzL5gNWN0i8Ox0ysEcP55J6qTPNE30SiluhHRP736/cwR9lOSmyC2BMHTt2pWTqQNZKS3wy9pVYvWR8rrbm8ri+CjrlcfTNKmXYTdNQ9ONTKaOHRXJrzZnLtrowreF27ZVnYWvmmiBTJlxhY8g9StEmX08idS5vqAHoUk9qPEoHAqYCkQhddOMfM9IPnZcOubrYI6Wn0/qOar0dZunaaJXjMnLla/XggLPUSARUj/HWdQCUkcbgALpKgBSPxgbkPpBAUNkB6mHUNW/TLnd3D8XUialAEg9qXCENgakHlphlA8F9isAUt+v3a+cIPWDAobIDlIPoeqnZdLO9U9zIX0iCoDUEwnEOWaA1M/RGbVAgT0KgNT3qCbygNSFGKkcgtRTiAR1jRQsgQ07FACp7xAt3ywg9XxjB8vLVwCkfjDGIPWDAobIDlIPoeqOMuu63pELWVJQAKSeQhROswGkfprUqAgKfKwASP1jyf5vBpD6/9UjiU8g9STCsCz4jXUigdhhBkh9h2j5ZgGp5xs7WF6+AiD1gzEGqR8UMER2kHoIVVHmpRQAqV8q3CD1S4UbzmamAEj9YMDke1Jxr/+gmN/KDlL/lpIo57IKgNQvFXqQ+qXCDWczUwCkfiRg1jc4qpdBHikfefcpAFLfpxtyQQFWAKTOUlzhAKR+hSjDx1wVAKnvi5x8IaL1WL4kcl8VyLVbAZD6bumQEQqQAiD1S7UEkPqlwg1nM1MApJ5ZwGCuhwIgdQ+RkAQKuBQAqbvUKe47kHpxIYVDBSkAUi8omHDltwIgdTQFKHBQAZD6QQHzyg5SzytesPZaCoDUrxXva3gLUr9GnOFlQAVA6gHFTa9okHp6MYFFUOBHAZD6jxL4vxwFQOrlxBKeRFIApB5J+DjVgtTj6I5aoYCPAiB1H5WQJi8FQOp5xQvWJqgASD3BoIQzCaQeTluUDAWOKgBSP6og8qenAEg9vZjAoswUAKlnFrBj5oLUj+mH3FAgpAIg9ZDqouw4CoDU4+iOWgtSAKReUDC3XQGpb2uEFFAglgIg9VjKo95wCoDUw2mLki+iAEj9IoEmN0Hqlwo3nM1MAZB6ZgGDuR4KgNQ9REISKOBSAKTuUqe470DqxYUUDhWkAEi9oGDCld8KgNTRFKDAQQVA6gcFzCs7SD2veMHaaykAUr9WvK/hLUj9GnGGlwEVAKkHFDe9okHq6cUEFkGBHwVA6j9K4P9yFACplxNLeBJJAZB6JOHjVAtSj6M7aoUCPgqA1H1UQpq8FACp5xUvWJugAiD1BIMSziSQejhtUTIUOKoASP2ogsifngIg9fRiAosyUwCknlnAjpkLUj+mH3JDgZAKgNRDqouy4ygAUo+jO2otSAGQekHB3HYFpL6tEVJAgVgKgNRjKY96wykAUg+nLUq+iAIg9YsEmtwEqX8Q7q7rKr8/Vejj8fDLV43jqPLu/jiOo2elj8dD1eKZses6lREfv6sASP27eqK0FBRIjdTruh6GIaIynuOtOVBbbX69Xvf7veu6uq655LZtb7fb8/mcpsmaCyfzUgCknle8DloLUv9YwHEcreTddd3r9XKMg9M0DcPQNA2PnnTQNM0wDO/3+2NTPDJM0/R6vdq2VZXWdf14PNwXBuM49n2vMlZV1ff9OI7zPHvUjySHFACpH5IPmZNUIClSH4ahqqoUFh3GcTQXg+gqwmewnef58XgoOu9+/anxv+97xzyVZJOBUVoBkLpWpOjPIPWd4VWwXte1z2C6LIu51H3CoDnPsxzBq6ryXJ5ZlkVNHn3f75QM2T5XAKT+uWbIkboCSZE6U+wJ4/BmYOZ5Vks5nov9z+eTR/i2bYdhUPPRPM/DMMjB3H8K2DQbCc5XAKR+vuYRawSp7xRfAfdH/CpXqZum2WnBh9nkGF1Vlf+0pK5JPGeOD61DcrsCIHW7LjibswLpkLocxj8aw8PJrwbqzYrmeb7dbjynPJ9Pd5bn88mJ27ZVQO/Oi2/TUQCknk4sTrAEpL5fZB7vPlqiVqvUp911VcDt77aczKrqmzvp/W24bEqQ+mVDX7Dj6ZC6ZFz/+6JBQ/PRQD3PM98TqKrKcxmFNvzQ/NU0TaCNl0FVQuEg9Uu1AZD6/nDvI3V1fzN9UpdrMCD1/c1lV06Q+i7ZkClpBRIh9Wma5BheVdXmgvQJsvqTusL0j3azyFqapsHK+gmR/W4VIPXv6pl4aSD1/QGSo7z/KKl+o5k4qb/fb97+SP66f4S6X03ktCkAUrepgnN5K5AIqd/vdzmGV1V12l5ER/wkQ1dV5Ugpp5K2bR0prV/JDfGnTUNWS3ByhwIg9R2i5ZsFpL4/dnKU9yR1tT595jMH/CcAVkQt/4PUWZnTDkDqp0mNik5TIAVS5x/Zyw0wVVW9Xq/TdLBW5DlQv14vOQHtMFvugUnkfoJVEJy0KgBSt8pS6kmQ+v7IyoHSh9Rpw/ftdpO/GTptMcNzApBykJ3q6gJr6lKi0Mcg9dAKo/zzFUiB1IlTaeOHvG142oC8JrvnQC1XxHffCpCOJ7JNf00WnFcKgNSVIGV/BKnvj+9HpE5LOPRb+yxInSaMYRjwi9L9TeRwTpD6YQlRQHIKpEDqRLr0E0y5jeSj52KFUNaH1NVy+P1+32eJctzzB6n76kKu7yoAUv+unomXBlLfH6CPSL1t27qu6Vf26ZM63Vqlx5aB1Pc3kcM5Q5O6bMNrx3Vdd113v989b6fM8/x8PuUrEpumud1umxzwer1oK4Ks6Pl88tMtmqb56KUtuy3huA3D0Pe97LBrKtFa7Pv9XkvgPk835VRfM7OwMuZX8gwnY0f4gF5nxpLSBrz7/e7/2FYuavdBdFKn8Y1XkVXU4j6u0YfUv7VjRxH/js3uu9sAMh5UAKR+UMC8soPU98dLTo3u3S/00yXeSign/tNutvpMAKTFNE11XfOorejBAQH7pUTOFQVCk/qyLPM8q6W1vu8fv/76vpdIV1XV7XZzPyaC38DSNE3XdSp727bmI+GmaXo8HvJuPrWx9/utsnOPc3c3coobfNu25I7km6ZpuD9atX+/39Kkuq5ZFnmentDKmnBnadv2fr9Tvco7LufxeLBJchwwHV/TTQWubVuHU+M4kp7sy/1+l770fc+OWDX51snopE4jsFyKlmMyE/y3/P2oHG631Nqtebkj0IHZp6y5zJPqEqWqqnMagGkJznyqAEj9U8WyTg9S3x8+OVw60IHWLdZmBTlD7zfFI6fPBECIQ8v/vMbG8EH+gtQ9xP5akhNInWyVTKxCPE2T/PZ2u625R+DYtq0sYZomhUEMFtM0MarK3jSOI10uypPq2NHj+Ol1dV1LS5ZlUb7IXimdUo88Uggru5JSg74yF2WlAsokqkttNZ7nWfrLnVEaScdyq7ED03n1VPmyLIv8Ico5T9eOS+r8cEapKutDskd8XKNsXdZnv6gB2ZrGbCdrZ2Qzw0N411RK8DxIPcGghDMJpL5fWznGrXEDTcMKx+W0rb7ab81Wzs0JgAog2JIwoSYG+dVWnfj+qAKnkbpsk2aI+UEZ1ObNBMuyMKZbl+UkkcvnNxO1S1gkXKDLxb7vX6/XOI7P51Ou/jrMYEyvqoovCWQYZIK1d5ZJNfjmEhciu5Lq+LRKbSogCzTVI0zk8ulADi/qK/nRXTKlZAxV1xVcDieoquqEFeW4pE4N1ZRCNjB14cRCnXAgW5eVwmWwqJEcsUo2s7XucKR85A2kAEg9kLBpFgtS3x8XOcapCZsKJSYwZz45uSZF6jQHKF9A6vubyOGciZD6sizy4dPmUjQ/M06uU0rveSGTeo1qY8uyyGV72jajONvcpWPFKbbTXNhme9RNf4XO6ltze71kKeUIbejnivhAdnlVHaUxl//l8MLlmAeyZPMKgW4j8Lr7WnSWZZGXUqEHpYikzjcrzCjIsEZ8XKMyw4y4SnAwWLL9gNRNtZM9A1JPNjQhDAOp71dVTqVqwqZCafJTwLEsixwcD46z/tar8d3MSIBiLjWB1E2tTjuTDqnL9mM2WlqPNBuPFEquWZoL1bJT0COSZF4+lkBv4pS8HjD7HRfCdwCoCyvi32zwUgrV8flX47Iu1eVNRqQEau+KHF5UafKj1E2e52NaQqbfGPBJ80BK5/9eerMcnzMRSZ1ipyJONisFzEbu49rxNLJ1yTawdnzQTtl+QOrHw3daCSD106ROoSKQ+v4oyKFTTdi8+9O631EOjgfHWX/r1QSgMtJLjuS2BE6wCS6cEgdfVyAdUue16qqq1HI1L0JbWztrIpu9eVtffmtlWSpHtUZlCVOpWT6bQQdsM/ViScmqCtMY2ZXMjq8qoo+e3sm8cniR59WxLFl9RQvqXM6mqXJZ3byUMgvffSYiqdPlonmfhHyR7SfW4xpl66In83T/909e8R5/d55sPyD13U36/Iwg9fM1j1gjSH2/+DwFmgMcTfYKI7gmOTgmQur0TD3rMuQmuLBfOPi6AomQutqnrkBHQrzsFO5jRcCyU6ivlKpyWV0ujvLGBk98kcQj7wbIcqzvbpQstYm/ZLy/d+ysVI9PmgeyZPNbGRq3qsuyqA3Q1tHArGLHmVikTg6a2xHZBTXWrQ3gnD7EgWxd1gtOlUB2gR32yPZjTmQ7CkSWcxQAqZ+jcyK1gNT3B0JOpXLC5qccWreNqlvhKZA6TecKv1gXNXttzvecEQfHFUiE1OVao9liebJ/Pp+j95/qHVzI5gMoFKmwyLxX3pPUpVN1XXM5alO+CXbSANnxZQnq2N87ziiHFz5pHsiSzW/lVc1mz1XbP9x3SMy6/M/EInXSyvyVhbRcKmaGXqYMdCxbl5XU1c+vrWn8bZP+ht715G8VUm4qAFLflKikBCD1/dGUU6mcsOVLjqyly8nV5B5rluMn1yYA+ZIjay0gdass55yMS+rTNA3DINeerZTDCWQv+FQf2SncTKkaJFckW7hPt5LpFe6o58OoffMyo6fL/t6xO3J44ZPmgSzZ/FYW4laV8sr0nq6ZlW6eiULq3GwcP6s1byyEu1xZU0m2LtUsKQs7wsFSF71rJVvPcyF04NNIrOXg5MkKgNRPFjxudSD1/frLMY5nNVqok9tezQrk5OqDFGYJO85YJwB6iKR7T6qaGDCU7xB/d5YopC4bNh9bX75DfnEa7gU7/JWdwt3G1BZzrku2cJ9upRo2l0MH8zzLrSN1XT+fT9oQIivydNnfOzaDVfU/4Lx8IPO6VaUs0k5P17gu/4MopC5voUhZ3McH95b4a8IpZeuykvqyLMpmn8hy+fJAbfRSd5ZkShynpgBIPbWIBLUHpL5fXjlc0qxG+yCt646yGjkd+iCFzLv72JwA+CGS7kUmBTS7Z4Xdll85YxRS55do3u932VZpV4nZALgjyN3en0ZNVmRWoUrjGiXKyBbuA1iqYasq6OM0TW7C88TZj7yjqqWP/K5T84BvaEgp2BdZyNr2Nk6sNuZ5uiazex6fT+q8sef//jjT/klKaj5fyNPH3clkM7bGVD1S0/pTCs/aVReIsi/f01QkUwqA1JUgZX8Eqe+Pr5wFH4+H9SVH1tLltB2R1AlBNqlIjeab6a0u4+Q+BaKQugrxPM+KHtSWAO4IR9bkZKdQBpjScY0SZZSRZi51RjZsh+Xyd5ZN0zweD2mqJ87KLJvekZ1WH5ULiq3Nb2UhPqZKO1WUzcJ3nzmf1KltuG8esjvqps1pQzQZ4NOMZZvcfP4m+2UeqLo8W6ZZDs6crwBI/XzNI9YIUt8vvpwF6d2Enr9AktPhadOAGpTpZ0k+k7cEms1f++1XEzltCqRA6mSXggO5v0u2Z5+FW1oUVHdyZCFuYpC37GX3Ub+0cxeyLIts2Gt3A+jym3t6rN0vtqbx+5zUzUzG7zzy/JWtLK2YZ7/wk4s8G6e6/jn5cY1qoDZjSmfUwv++rery56SyK61VivPpKABSTycWJ1gCUt8vMs/ffOA5t8np8LTxUU0A/isxEmhA6vuby66c6ZC6+RpRdkjuD/HZdkJbETg7HchO4YZs2SDlTjPe4UD9UX6l6qKP8trDun6sflfKl7WyK/FJaxV80t87zsKjirxvwN/ygSyZT/KBDE1VVZs8x/znuMnAhe8+OHlNnQLt0zLZI/kcoaqqNtsSZzx+IFuXI/Sy9e57uqLsRxjYjwfu5BJA6icLHrc6kPp+/eVU+tFmQTm5xiJ160uOrFpgQLfKcs7JpEh9jSEUNGzudu26zlzDlp3CTepy7VxdG8s1wk0yk+5YEVb+olT2U5kxcVJXxLm5qMxjWlA2PZnU6fLDejHm6MV80VJVlefNUkdp/l/J1uUgdbXwv8NC2eOChtvfd6T0VwCk7q9VASlB6vuDyLOa//o0VSaHSEkAVlPev/6sX310Uk0ACnEcRYHUHeKE/ioLUl+WRe6yMF9iKlVa+3WE7BRuUudXaZp9R10zuMGUsd56aSEZt65ruVdHdqXESX1ZFkmc7qsX6bL0V4bvK8dnkjoNXztAVrWlTdAPNFA7BOddPTQTfUTb8nJ3c/v+PM/jOFqvZh3m4augCoDUg8qbWuEg9f0RkaTuOWFTZYwIm5tHGV+6rjs4UEq8cC/VKEXk/I2bpEqc0B+TInVG5Kqq1OwuJ37qF23byr3s9GZ7KsEkbLVA6GAOucXFerXJXaaqKseNIy7HynD08jLu4MoR2ZU8O760yn0dwi2Ka3f3Vlky55UH6krbQZy8VcbTKVnLR8dnkjrpY70Yc9ssfw5BbcmRnqNw8kCtfkfhvjRl++VPZtW7AjgNH7xeL7oOr+vas3zOi4NwCoDUw2mbYMkg9Z1BUfPfR3ObnIMdq1yKfhxTrI8PPJdQ7T5ZKI3kErzEzl+3r6RMh9Tl7G7dF6saGDWzuq7pSXi8sqvWp1klmd1Kz5SSk611BwXZa4jGV8uKwqkW/ta6R1n2CM+Oz2b7X+vKUYJVMg+kqWvXAHIbT13X1iscviBX12BmjcfPnEbq7NSaMm5fZNSsbZ6yf3egltfDPj8teL/f3Ll8NmFKazcxXd0uC/rrBXcs8K1SAKSuBCn7I0h9Z3zlbG0uMToK5cmDZ+K1G82qCk8msFat7pN+9JBgiQLujQ3WqnHyiAKnkbrcvmJizTiOMoEV5tTvL7l5y4M1TFRr6tShFFDO88wQs8bfJLVaaOy6TnaxaZqoSa+tEUqutaIMrz37b3uTIvgsTKrrImm/bE5q3dd61UHppc30FidZDtPb8SVhWeza8TmkLgc9hzJrRpptcq31fnegltjtuTIyz7OMb9u2wzCoe7DzPA/DIK89HHeupCay6bpv78hcOA6tAEg9tMJJlQ9S/zgc4ziqoZnGstvt5t7M936/n8+nJB7K2DTNMAyKS8z3WvtM8KYz0zS9Xi9F2/QbKWulXMI8z6/Xi9lIjtd937s95UJwcFCBE0jdfLlP27b8hp2+71Xjud/vCgKkjxJzZZuh/QNmI+e8kiH6vqdu0nUdWcJn1vCay6GDaZpkgYT+XdexL13XWY1hZiXjVRrCHeXX4/FYI+llWd7vt+pETdO8Xi+Hhu/3m+2kuqwviJ2mSZVs7jiSsqjBh293kNR1XR9ZC5AVbR6HJvVpmoZhkMhLzUZF02Hn+/22DvKkkgq32tG+b6BelsUxUDtaC3sxjqO1zctmT82p73vlAhdiHkgZHXeAzYw4E1QBkHpQeVMrHKT+QUTUOKgmbPlRFWod9GV6PlbLmY/Ho/71t2MSVftzuArzwCzcTGM9Y91wrHzHxyMKhCZ1a1jNk/S0FnOhzuraNE33+12yZtd1m/giO9c4jtZCns+nD7KwVeM4qiuNtm3pOpPT8IHZX9QGG2mhVSIuig7MAs1cquttZuHxwSxKnuFkyqR5np/PZ9d1vF5AvP6psKrYTz8GJfVNDTetlUquHauh78hAvSzLWi3qvGotVkemaXo+n7fbTXZA+kFU3/eeXViW/H6/qeWvXdzKxDg+TQGQ+mlSp1ARSD2FKMAGKGBXIDSp22uNcVZy8BpoxrALdX5fgaCk/n1zUSIUSE8BkHp6MQloEUg9oLgoGgocVACkflBAZE9QAZB6gkGBSXkpAFLPK14HrQWpHxQQ2aFAQAVA6gHFRdGRFACpRxIe1ZajAEi9nFh6eAJS9xAJSaBAJAVA6pGER7UBFQCpBxQXRV9DAZD6NeL820uQ+qXCDWczUwCknlnAYK6HAiB1D5GQBAq4FACpu9Qp7juQenEhhUMFKQBSLyiYcOW3AiB1NAUocFABkPpBAfPKDlLPK16w9loKgNSvFe9reAtSv0ac4WVABUDqAcVNr2iQenoxgUVQ4EeB65C6fMGKepD5jxj4vxAFQOqFBBJuxFMApB5P+wg1g9QjiI4qoYCnAlcgdfMlqfRGyY9ecuSpJ5KloABIPYUowIasFQCpZx2+T40HqX+qGNJDgfMUKJvUN9/dq94EeZ7uqCmkAiD1kOqi7EsoAFK/RJh/nASp/yiB/6FAegqUTerp6Q2LzlAApH6GyqijaAVA6kWHVzsHUteK4DMUSEcBkHo6sYAl31IApP4tJVHOZRUAqV8q9CD1S4UbzmamAEg9s4DBXA8FQOoeIiEJFHApAFJ3qVPcdyD14kIKhwpSAKReUDDhym8FQOpoClDgoAIg9YMC5pUdpJ5XvGDttRQAqV8r3tfwFqR+jTjDy4AKgNQDipte0SD19GICi6DAjwIg9R8l8H85CoDUy4klPImkAEg9kvBxqgWpx9EdtUIBHwVA6j4qIU1eCoDU84oXrE1QAZB6gkEJZxJIPZy2KBkKHFUApH5UQeRPTwGQenoxgUWZKQBSzyxgx8wFqR/TD7mhQEgFQOoh1UXZcRQAqcfRHbUWpABIvaBgbrsCUt/WCCmgQCwFQOqxlEe94RQAqYfTFiVfRAGQ+kUCTW6C1C8VbjibmQIg9cwCBnM9FACpe4iEJFDApQBI3aVOcd+B1IsLKRwqSAGQekHBhCu/FQCpoylAgYMKgNQPCphXdpB6XvGCtddSAKR+rXhfw1uQ+jXiDC8DKgBSDyhuekWD1NOLCSyCAj8KgNR/lMD/5SgAUi8nlvAkkgIg9UjCx6kWpB5Hd9QKBXwUAKn7qIQ0eSkAUs8rXrA2QQVA6gkGJZxJIPVw2qJkKHBUAZC6v4Kv16uu67Zt53leyzUMw2aatbw4/y0FQOrfUhLlXFYBkPqlQg9Sv1S44WxmCoDU/QPWdV3166/rOmuueZ7ruqY0j8fDmgYnT1AApH6CyKiibAVA6mXHV3kHUleC4CMUSEgBkLp/MJjUq6oax9HM+Hg8CNOrqno+n2YCnDlHAZD6OTqjloIVAKkXHFzTNZC6qQnOQIFUFACp+0dCgnjf92bGpmmI1Ou6nqbJTIAz5ygAUj9HZ9RSsAIg9YKDa7oGUjc1wRkokIoCIHX/SMzzzCxuLqszx9d1/Xq9/ItFyq8rAFL/uqQo8GoKgNQvFXGQ+qXCDWczUwCk/lHApmlq25YXzu/3+/jrr+97Otl13fv9/qhMJP66AiD1r0uKAq+mAEj9UhEHqV8q3HA2MwVA6jsC9nq9+r5nZK+qqmmavu+tm9d3lI8sBxUAqR8UENmhAEj9Um0ApH6pcMPZzBQAqWcWMJjroQBI3UMkJIECLgVA6i51ivsOpF5cSOFQQQqA1AsKJlz5rQBIHU0BChxUAKR+UMC8soPU84oXrL2WAiD1a8X7Gt6C1K8RZ3gZUAGQekBx0ysapJ5eTGARFPhRAKT+owT+L0cBkHo5sYQnkRQAqUcSPk61IPU4uqNWKOCjwPmkPs/z8/nsuo5f59k0ze12sz7Z8Pl88ruEPjpw/LhzGIbb7cbPW6zruuu65/M5z7OpmLtSfhEpP6LRmp6TmeXjTAgFQOohVEWZl1IApH6pcIPULxVuOJuZAieT+vP5JEDvuu7x6+92uzHddl2ncJkJmNNTLs5SVRWdoX/5eSxWOB7HkQCd6Fy+c7SqqrXnoM/zzA9hpHqtKed5Zms52TAMmTWIIswFqRcRRjgRUwGQekz1T68bpH665KgQCngrcBqpz/NMUN62rXri+DAMTN51XUtYJ5g2eZfTV1WlfKXSzHeI0vm6rmVp8zzf73dZmvxWlszXAFVVraVZlkUmu9/vsgQcn6YASP00qVFRqQqA1EuNrNUvkLpVFpyEAkkocBqpE3PXdT1Nk+m5BNyu6zhB27a3240/8oFkaz7JB33fy0KWZWFMVxcJlEXtsbGmkQvwjq01clnd0Xs88QAAIABJREFUuq7PRuIgnAIg9XDaouSLKABSv0igyU2Q+qXCDWczU+AcUmd+fT6fVoHU9hJOU1WVdf+6m9Tf77dca5+mibbcONbCedt6VVWK8skYT1KXm3mslrNrOAinAEg9nLYo+SIKgNQvEmhyE6R+qXDD2cwUOIHUp2kisFY7W6RSalWbvnq/33Vdy2R87Cb1ZVmqquJdNHQZsFYUlakuFTgv1+hD6mojjWPpnYvFQQgFQOohVEWZl1IApH6pcIPULxVuOJuZAieQOvOrdR8L6cW/2qzrem3dXSq7SeoyMS2oO2pfloVX/alkE7I3SZ022Mi1ebMQaRWOwykAUg+nLUq+iAIg9YsEmtwEqV8q3HA2MwVOIHWG1y/u2/Yn9dfrJRN7Hpumukl9HMeqqvq+l8QPUo/VGUDqsZRHvcUoAFIvJpQ+joDUfVRCGigQR4HQpM5bX+hxit9yUgK3u0xG577vR+8/82evDlKnXTpt26q1eZC6OzThvgWph9MWJV9EAZD6RQJNboLULxVuOJuZAqFJnRabCazNherdYvmTOm9At/5O1N+ANVKf57n99Udb2/nCoKoqkLq/vN9NCVL/rp4o7YIKgNQvFXSQ+qXCDWczU6B4UmfCDkTqbdvWdc0PdgSpp9ABQOopRAE2ZK0ASD3r8H1qPEj9U8WQHgqcp8CZpO7+TedHPvuvqTOpu5/9slk7lyMXy2nBnjEdu182ZTwnAUj9HJ1RS8EKgNQLDq7pGkjd1ARnoEAqCpxJ6gdZWUq2g9SrqpJILUvzOTZJnZ4sqZ7RjjV1HzFDpwGph1YY5RevAEi9+BBLB0HqUg0cQ4G0FAhN6vQSIgZrn5cBTdN0v9/dMnGB8g1H1iwSnfu+t6ZRJx+Ph2mnInV6JqNpp6wO+9SVsKd9BKmfJjUqKlUBkHqpkbX6BVK3yoKTUCAJBUKTOr2EiMHaZ7P47XbbfKQ6F7hJ6oTUnN58qIsZhqZpTMiWpP58Puu6tnI/SN3U8/wzIPXzNUeNhSkAUi8soG53QOpuffAtFIipwAmkfrvdGJSrqnJTOD3+fJOnZYFu+eRjIquqatvWfP+oLOHxeFh36UhSd5QDUpdixjoGqcdSHvUWowBIvZhQ+jgCUvdRCWmgQBwFTiB1+aDGqqrkk1KUz/Rgcp91d39SX5ZFXSo4YJ0W4K1Pk5SkXtf1Gu6D1FVMo3wEqUeRHZWWpABIvaRobvoCUt+UCAmgQDQFTiD1ZVkk5hJkPx4PCbvTNDHj+vzu8yNSV3vl6WphGAZpwDzPZMAahUsXzF3sHD/2Qj4ihr/FwTkKgNTP0Rm1FKwASL3g4JqugdRNTXAGCqSiwDmkPk1TXdcSr+m4bduu69q25a+s69mmWJx+c5865ZUALfN2v/6kAWsULknd3MXOFt7vdy7f0xfOi4NvKQBS/5aSKOeyCoDULxV6kPqlwg1nM1PgHFJfloV2tjDFWg+sv9E0BVXbaTY3tVMJ/LJSa9V0Uj1yUVYtrzQcW+0l9JtPhpEF4jicAiD1cNqi5IsoAFK/SKDJTZD6pcINZzNT4DRSJ1iXICuJua5rB/5KTV+vlyqk6zrHIrfMOwyDBG5lwBqmT9OkKL+ua3PpXW7goZLrul4rU1qF468rAFL/uqQo8GoKgNQvFXGQ+qXCDWczU+BMUidphmG43W5MzG3bqj3rawqu7WCRwL2J7PM8P59PuZXFbYAs3DxmU2WBZjJsg2GhzjkAqZ+jM2opWAGQesHBNV0DqZua4AwUSEWB80k9Fc9hR7kKgNTLjS08O0kBkPpJQqdRDUg9jTjACihgUwCkblMF5/JWAKSed/xgfQIKgNQTCMJ5JoDUz9MaNUGBTxUAqX+qGNKnrwBIPf0YwcLEFQCpJx6g75oHUv+unigNCnxTAZD6N9VEWWkoAFJPIw6wImMFQOoZB+9z00Hqn2uGHFDgLAVA6mcpjXrOUwCkfp7WqKlQBUDqhQbW7hZI3a4LzkKBFBQAqacQBdjwXQVA6t/VE6VdUAGQ+qWCDlK/VLjhbGYKgNQzCxjM9VAApO4hEpJAAZcCIHWXOsV9B1IvLqRwqCAFQOoFBROu/FYApI6mAAUOKgBSPyhgXtlB6nnFC9ZeSwGQ+rXifQ1vQerXiDO8DKgASD2guOkVDVJPLyawCAr8KABS/1EC/5ejAEi9nFjCk0gKgNQjCR+nWpB6HN1RKxTwUQCk7qMS0uSlAEg9r3jB2gQVAKknGJRwJoHUw2mLkqHAUQVA6kcVRP70FACppxcTWJSZAiD1zAJ2zFyQ+jH9kBsKhFQApB5SXZQdRwGQehzdUWtBCoDUCwrmtisg9W2NkAIKxFIApB5LedQbTgGQejhtUfJFFACpXyTQ5CZI/VLhhrOZKQBSzyxgMNdDAZC6h0hIAgVcCoDUXeoU9x1IvbiQwqGCFACpFxRMuPJbAZA6mgIUOKgASP2ggHllB6nnFS9Yey0FQOrXivc1vAWpXyPO8DKgAiD1gOKmVzRIPb2YwCIo8KMASP1HCfxfjgIg9XJiCU8iKQBSjyR8nGpB6nF0R61QwEcBkLqPSkiTlwIg9bziBWsTVACknmBQwpkEUg+nLUqGAkcVAKkfVRD501MApJ5eTGBRZgqA1DML2DFzQerH9ENuKBBSAZB6SHVRdhwFQOpxdEetBSkAUi8omNuugNS3NUIKKBBLAZB6LOVRbzgFQOrhtEXJF1EApH6RQJObIPVLhRvOZqYASD2zgMFcDwVA6h4iIQkUcCkAUnepU9x3IPXiQgqHClIApF5QMOHKbwVA6mgKUOCgAiD1gwLmlR2knle8YO21FACpXyve1/AWpH6NOMPLgAqA1AOKm17RdlL/f/P8+7d/+7fq5++f//mf83QCVkOBPyrwN3/zNz8tuvqf//mfP36BIyiQrQL/9V//xa367//+77P1A4ZDgWgK/Pu//zt3on/8x3+MZgcqPkWBP/uzP+Nw4wAKQAEoAAWgABSAAlAACkABKAAFoAAUgAJQAApAASgABaAAFIACUAAKQAEoAAWgABSAAlAACpSgwP+T599f//Vfs/p/9Vd/lacTsBoK/FGBP/3TP+Um/Xd/93d//AJHUCBbBf72b/+WW/Vf/MVfZOsHDIcC0RRomoY70V/+5V9GswMVn6LAn/zJn3C4/3iQ3i9fvSz6wx/+wD7867/+q1ceJIICCSuAZ78kHByYtlMBPPtlp3DIBgV+FMCzX36UuMT/9me/ZOo6SD3TwMHsNQVA6mvK4Hy+CoDU840dLE9EAZB6IoE4xwyQ+jk6oxYosEcBkPoe1ZAnbQVA6mnHB9ZloABIPYMgfc9EkPr3tERJUODbCoDUv60oyouvAEg9fgxgQeYKgNQzD+Bn5oPUP9MLqaHAmQqA1M9UG3WdowBI/RydUUvBCoDUCw6u6RpI3dQEZ6BAKgqA1FOJBOz4ngIg9e9piZIuqgBI/VKBB6lfKtxwNjMFQOqZBQzmeigAUvcQCUmggEsBkLpLneK+A6kXF1I4VJACIPWCgglXfisAUkdTgAIHFQCpHxQwr+wg9bziBWuvpQBI/Vrxvoa3IPVrxBleBlQApB5Q3PSKBqmnFxNYBAV+FACp/yiB/8tRAKReTizhSSQFQOqRhI9TLUg9ju6oFQr4KABS91EJafJSAKSeV7xgbYIKgNQTDEo4k0Dq4bRFyVDgqAIg9aMKIn96CoDU04sJLMpMAZB6ZgE7Zi5I/Zh+yA0FQioAUg+pLsqOowBIPY7uqLUgBUDqBQVz2xWQ+rZGSAEFYikAUo+lPOoNpwBIPZy2KPkiCoDULxJochOkfqlww9nMFACpZxYwmOuhAEjdQyQkgQIuBUDqLnWK+w6kXlxI4VBBCoDUCwomXPmtAEgdTQEKHFQApH5QwLyyg9TzihesvZYCIPVrxfsa3oLUrxFneBlQAZB6QHHTKxqknl5MYBEU+FEApP6jBP4vRwGQejmxhCeRFACpRxI+TrUg9Ti6o1Yo4KMASN1HJaTJSwGQel7xgrUJKgBSTzAo4UwCqYfTFiVDgaMKgNSPKoj86SkAUk8vJrAoMwVA6pkF7Ji5IPVj+iE3FAipAEg9pLooO44CIPU4uqPWghQAqRcUzG1XQOrbGiEFFIilAEg9lvKoN5wCIPVw2qLkiygAUr9IoMlNkPqlwg1nM1MApJ5ZwGCuhwIgdQ+RkAQKuBQAqbvUKe47kHpxIYVDBSkAUi8omHDltwIgdTQFKHBQAZD6QQHzyg5SzytesPZaCoDUrxXva3gLUr9GnOFlQAVA6gHFTa9okHp6MYFFUOBHAZD6jxL4vxwFQOrlxBKeRFIApB5J+DjVxiT1YRhut1td19Wvv6Zp+r4fx3G3En/4wx+oqKqq/vVf/3V3OWsZu67j8gMdHHF/zWycz1eB0KR+vBl3XZevvLA8igKhSd0xUD8ej4Muz/Ps6DUYwA/Ki+yeCqRD6sMwUI843rk8fb9gsjik/n6/27ZdG+9ut9s8zzuCEZrUyaRxHB+PhzK+aZrO+48vTqiQpmmGYXi/3ztcRpayFQhN6suyTNP0er3M/rjWnFXLB6mX3QJDeBea1MnmaZru97tqrnVd75tcWAdz8G/b9vV6cQIcQIETFEiE1KdpYp4BqYeLewRSf7/fHFo1jPLHfdP/OaROwVDj9UdtVC35TNMULsAoOWsFTiB10meeZ9UrHbpN08Ttf19XdRSOr4pX4BxSJxlvtxtPK3TwfD53K2x2k6qqDqL/bmOQ8coKJELqconnIwq6cux2+H42qfNI17bt8/kcf/09n08Fr1VV7Yj6maQ+jqOcAD6yVjrbNM2OsCHLRRQ4jdSXZZHNsqqqTYWpC4DUN4VCAqXAmaTOt+Z5uD4y5Jqlof2r4OLjOQqkQOrqntVHFHSOSsXUcjap08b0YRhMBdUguGM8PZPUl2Xhof/T6wqJRBjozZaAM6zAmaSuhl22wXHQ933bto4E+AoKmAqcSepqSYUGbesEZNppnmmaRg77VVVhADdVwpkTFIhO6mbPAqmHi/uppE6hdWzIfj6fchx0pLQqAlK3yoKT+SpwJqnzhhbqgz6ivV4vn9V3n6KQ5joKnE/qXdfJzV07loGWZaG1pLqu5R1/kPp12m1SnsYldd4cIWcNkHq4FnIqqfd9v7lHUI6nn/6OHqQerqGg5CgKJE7qdGcpijKoNF8FopC6RIqqqj6dXHh72OPxwE3RfNteMZbHJXXqAo/HQ66sg9TDta5TSd3HDTkI+qSXaUDqUg0cF6BA+qRegMhw4WQFopA6rwLSLaNP18KZSKZpkpPUp+WcLDWqK1WBiKROex+o5XO/+HQPcKlxCeRXuqR+u90+9Rmk/qliSJ+4AiD1xAME83YoEIXUl2Xp+17urvxoWZ3y9n3Pi+v7iH+HXMgCBUwFYpH6+/2uqoqfdgpSN0MT4kxypM5bAD/dpL4sC0g9RBNBmREVAKlHFB9VB1IgFqlP0yRJnbDbx0fOSE/UxZq6j2hIE1SBKKQ+zzMRGr9AAKQeNMpceFqkzgPi5nZ2dkAeFEzq9BYPOUO0bbv2Slf1w1w5ObmPzUWm9/vd931d13IL2uv14qcU13V9u93MjDIu6pjeTctPUajruuu65/PpeCyx22z6lsq53+8fGaNsS+1j7qQ+jmPf97LdcrgdrxGgR2qoXwFSlLuuu9/v1rybjWStYUjzrIWsZUytteRiTyxSN5fVrQ3JlJEW1Hmji2wwfNLMRWfmeabHEPOIV1UVjd6MO468wzAQG3GaeZ7v9zuX1rbt4/GwDp5qa77ZtjeN3yyBrTILl2comTxjHvMUI+V1JOOql2XZN87IErI7jkLq1BHu9zvLBVJnKYIepEXqxH/+Sx1KmiJJncZlGrDatu26jsdoOmm+0pWH167rHuJPjnri9IPvY/BYOc8zzxCUi76a55kZXZZWVZVphooOPTyBfjHcNM39fn88HnQZQEWp6wGVfZ5ndfO673vygp4VKO3xMUaVn+bHfEl9nmeecQkmHo+HajxrD8uToWzb1mwqa3sip2lSjaSu600eotC/3282mAzoum7Hnb00G1JSVkUkdQkWVVX5zDW8wZ0v2GQ7ccPuMAw04tV1TeOVhGxCditk8xIJ9wWK4Ov1kg9d4G8d7XwcR5Wl73vPSxSq1LOEcRx5KiHDbrebqsizh9LlDXtH2y2GYTC1OjLOJNUpPjXmfFKnJ32px/LKDsX88KkvSL+pQEKkTivB8nJt03qVoDxS55tNasgbx1Hyetu2cgijicTEIDnwKenoAWQ0b0l65izUCdVAzN/SgXvSYoRSN0wUgnddJ31RdkoDeOKkNNM0yW93/M5B1ZXCx0xJndutCUPqFcUqiKQ5tyvVhmWxVVWtjRWya6gS3DHle3pkgIIMd158669ARFJXu8x93jBKCx9ycPMkdX5DSF3X6pKPB0Pziewm71JrXJaFUIl7h3lg7U0q474nVMqqHSXIZA5t5UDt6KHywt7a2eWAoC66fMYZ/xabYMqTSX2apvrXnxoVQerntI0kSH2aJu6Tn17uS5kKI3UehtQYRC7P8yyJRIJp27byI0skR3Y+yQe0S2FZFppU1DrK4/GgN+PcbrdhGMZxHIZBzlhU+NpVNc9MCtNl7WyenBQ5AR3IGs1piVe/qCgzgSot/Y+ZkjqH2/q0dSYYuhVjRoHCZ53CfWDa3UjM6uQZboRWy2VKHO9WIC6pK5pcG7LYO1qQlq1RNrC1wUo2VGsVcvSWHD/P8zRNav2iqipCJbobOf76u9/varGcf+fHxtOBxKk1g1UW9dG/BJ8eJAV0jNJ8c3jtHtrBcUb5mNfHk0mdLq7M+5OyYVjbeV6qJmttTFKf5/n1esnOxp18X8gLI3UiY8cChiQe+YTgqqrMHqVeqmq2SPpNtzwvX1pJm4bNYs098eqaW67oOHxRFx5rDWBziJc2W5dhpIPpH0ckde6MdNA0Tffr7/F4vF4vx32PZVkkQJgiz/PMhdd1bSYwFxplGtkGrBd+MoGDA2SZfMyGgdRZk68fxCX1ZVkkJa/RLXlNY6wauGQDWwNfOTBaRzM5Ulmbsewm1CPMTX3qRqJ5C4u8kDi1ZrA7yp4l0CRCnUhtk5DlSwEdPVSSujn1HB9npEnZHZ9J6hQI64qhbBjWdp6dsGkaHJPU5aRoHlubhVvEkkidl2SsgzjpwGlIPQJTuutnFUqKvJZAEpgcKM0buFyCnHKsexJ4XnT4QrvYpYUm8as719YhXtq8b05iv1I4iEjqjOZyWuUA1b/23crWIuViUreC+OYUu3apSVVIe6xzg0xgbSTSVHXMDoLUlTJf/Bid1NUah2NcorFLLqirUWhtkJGkbi1fJrA2Y7W2sjYh0lq7bLdmr5Q4tWawO74+JShLHBV59lA5mFs78sFxxu1y4t+eRuoUerXDlsWRDWOtGXNiHOxWICapk9Hv9/v5fMqNazzoWAc4h6slkTqP4/LGqOk7a+VehqSMMrFZlHlGDpSOTqj2nKj1JzkpWkdbWS+PvFbiV3OktTR52bA2t8kaEz+OSOpKmff7bb3bbm2f9EO6uq4V4nCZcqrmk3ywxveUgC/81oBeFm5tJFyRefBpHzFLwJlNBaKTulpWV0MW20/7ZMxFd9nA1niUf+m49sMbH8TxbI1yoK6qyux0sq41g9lr68FmCbRXU/ZNR0VSQEcPlX5Zkx0cZ6ye5nLyHFKnyd2xTicbhgMSclE1WTvjkzpLo34lKZ+uz2ncByWRuvXSRQ7c1mO3PjKLOyV9KwdKdyeUfExbKrl86QifXDuQW6GsuOYe4tU1gzljrdWb7Pl0SJ0kMh/+4xjEHarKODqSmV/JiWHt9ros3DrBm8XymU/7CGfEgb8CKZC6HNysdMvrAubQJxuYg0fdgsiWbFZBeT1bo9onY65QyLr2GbxZAm2PlLtfHBVJAR09VMbIkcyhs6zIkSzHr84hdfoBoWMmlQ1jrRnnKG9qNidE6suy8G8oeYRyNBFTypJInRUYP/kzNZFnuEzPO/tyoHR3Qtld5Y55NYVIY6zHcgG+qipzvVaOvObYLUHfMU9Yq07zZGqkTirx77+pRa0Rsymp+fRPz6ZIRckfMzRNYzYPSuZuJKZV8synfUTmxbGnAimQurqqN5fVeUwzN5PIBrZjnDGfwLg2uvq3RrdJ7IvPrVdrEN0l0MBLW8nZZocy0lpzGGcD5ATkSMbp+eDgOMPlpHxwAqnTjX3r0ylYGdkw1poxJ8bBbgXSInWCdbkFwlwecLhaDKnLDegfjVAOcdSuR3dK+lYOlJudkAdoSeqyG/swmUpv+m4d4qdpGoZB3ngt4LekFII0SV1RztqSpGxj9GoSaiTqnQAy2doxhZhHhr7vTX7ivNZGwt+6D2QzdqfEt7sVSIHUl2VRdwLVaEP0aZ2AZANz8KjSh54RTsMUvTCOG9va6MoJNgdPOVabJslx1fxW2Wn96CiBlld4TY1tdlQkBVSyy9qlU45kMsvBcUYWlfhxaFKn2yNN0zhGWnrnFEd8rRknrmQW5iVH6suyyP7p6O2mvsWQuhwWPUcoUw3zDPeozXGf8spAbHZCpqgjpK4uJ0zf5RAv3eHjtm3XllpNQdI/kyapm+96dKy78EVU0zSPx4N+KCzjuBkFDi6tCFp/aiwLkYXLvLShjt5yan2UhGp+skwcf1GBREhdLoioxWb+ytrYZAPzmaHk635utxu1PTnIr42usvW69effNSlHKJesS5ZJx/RU3+fzaXXWLEG6TFv55fUMly+TKeOlgJzefWDOBarM4+OMKjDxj6FJXd04dUfH/NYR/cSFTdO8FEldbpn4KN5FkvqnP6t1tDPZnRzJ+KuPSF0OvjyqqhnCMRNwpdJILoe/lbXwO0rv97s8T3OVmZcLyeggWVKXZFBVlbl5gJZbeAWRl9xIfBmvzXDQy03lPZPb7eaIryxcNhL5kwmy2SxENr9Nw5BgnwKJkLp5wckX+bSgvnb9KRuYe4aSb5g2317Hje04qcuR1jRJfksXzPR259vtJldY6Hf81jVUWQKXT88ZUyqxU5zMbCRSQO6hZJL8VyYzuyoXy79wM3/CLkvg9GUchCZ1KR3H1P/AEf0y9D/ZixRJfVkWnlM/ineRpK7GwSPtQ3Yzn3K+TuqO0ZbtkUbyxMnfyuFDlTbPszS4qqovXuSwAScfJEvqcuamkClleGuB9dkXMo4qo+Pj+/2WGeVKnswl06hGMk2T/NZ8eoxsfrJMHH9RgXRIXf4Ckh9Gzpu7VONhBWQTcsxQ7/d77UrVc9uAf2uU/dE0yf0tPUGF67L+7MQsgX40Yj68j8sxzbAKuCayuru+lizEOMN2pnwAUk85Ol+3LVFS56FwbbHBKkQxpK7uwvssRdNDwayy8EkeQ0PsfuGLK1m4mgh9oslG7nj2i/lQ9rVNDqxJ4geZkjr/tNecyElw7uCytXjGQua1/iBBJrBO8DKBuhvAzW+HYZ72I1k6pM4PeOG4T9NEF/yeoLmWTL7NXt1QogYg2XdtYGSrNlujfPGqWZqsy2qwTGBd45AJ6Nq7bdu6rs25iW22VkS+yw5o7aGUTK68WJMFHWcS76ehSf39fo8ef/Lmat/3nMNcZUtcz8TNS53Urf1zTdOSSF3e619bO5Q6DMPgGBkpJY+hm+M+pZcDpTn6y9rlpYVakpGOqK9UCcuy8PbQtffM+wzx8pphUxPThqTOJEvqcoCuqkpGVk7qVkZRePSp4BJK1CNBqajNRqJKkIPMp33kU+ORflmWpEhdNldaVqcha63pqta7NsJwI1SXgtwAZL1ro6t/a5Rjtbk8IetaM9g9bKoS+r5fezwr27xWkRJQ9j4Whw6kU2YyadJasDgKnlOeMiDlj6FJ3dN3GYW1ZuxZFJI5FEiU1GmsXBvj1vwpidR5tYAGvrWRiKSg27Wbmz14DPUctuRA6e6Ecu1cmcF3J6l2cw1GRlN2e3O+8RzipdmenkobkjpOltRV+5Rr2/Irc34leQ/OoLIlm11DFm41QP4Spqoq2bZlyUm1hJKMSYrU1VuQqAG4px7ZwKw8KlccrAm+vvuFf/9nvRUpx9U1e9zDpiyBJDL7HTVR7kFrFXkO45u7X04YZ1LudCD1lKPzddtSJHUeFKys5pCgJFKX7OseGekh9OaL9EyheAz15Fc5dkuaMUvmFVbTDDlp8U5QswQ6w1i/NlPKOdIKYWp89/R0zZ7o59MkdUW66sn3PjGSaXaILFuy2TJl4dZGouyX15ay5B2GIYuPAqmRunqNw+ZTR2UDs/IoT2HWJ7GQRDKN2YYpjX9r5B+GWouSdVkNVsOmifuyBHVxqyLONq9V9C1Sl1GwdnNVkbIz948g9dwj+JH9Z5P6+/22/rScjeaXH+34JWUupO6+z8hS8DIJj323201t/xrHkUqzDtBcFB1wOZ78Kkldbm9QxcpFKQk9nEyWo6iO09ABb5XxGXnX0kjd3Gar2hP8eCap82UStROHGlJhc5+SnEGtG7f4uo4q4gFhGIZxHK2/QJXGqL0rqkeo6dnaSBwlfNpHpGE49lTgfFI30VOZyiOPz7uxNwdwxbXmjcRpmmQhfEvq/euPbZOt0bFuxVcaa0+/lvasAbS0x5x8ZQnuQZVtXqvIp4eSAnLiMDvykXGGFc73AKSeb+x2WH4eqTOC08KqOXjJd5Su/RDN7eGZpC5Hrs2lYmU2j2Vrj7ej9PwIApmesnS//ngdxT10cu2yHD7pOJADpXxKusrCyczxnVPKaWAtuEyKPG9xdj6Qo7M5di/Lou5F+FzAcOEJHpxJ6lJbx7WcvOlsxRqOI7U3GQIC8bquJRg9n895nm+3G2E9bYF1cIlqS2bUpCNmI5EDkbnk+WkfMWvHmU0FziR1vipzW8WDmHvBmAqRjcTKo+qmjXzJAz2iqq5r2YyJsF+vl/qN5mZF6l2DashGAAAgAElEQVSB5lUrGSxnK6vBrBLVaPaazRKoIuX4mubuHsq55EgihxFKIL9VUfMZZ7iWTA9A6pkGbp/Z55G67Oo0HPR9z/OxfM2k+wWEDj/PJHU5sruBWxls6mC9aKFc8gECctSWx2vg667XUSlnVD7Wdc3xMtO4zVB41DSNnAzmeWb+c2D6six8cWK9chjHUSbwvIBhXxI8OI3U1RRrJXW+gcPNz/qrMrXfia8tic5pyVxO1VSabD+06N51nWpv6hmL1trdjUStZSowUpd5Pn0kwTaTvklnkjoPLHLAMSWSyyJ8k8dMpvaXU9O1pud6ubPQ8gpd3NLtI/6KD9Tmbz5PB7fbTdX1fr+Z+FVeaby8i2WSuvx2bdVJpnHcoFDEr6xlk+Qo7TCbXaMHvXN2Ojg+zqgC8/oIUs8rXgetPY/UFaupMYg+tm3rHk/d3p5D6uM4KoQl4wksHLP7+/1WT66ljE3TDMOwthxCj1+0ykUrgmujodTq9XrJUc/z3UDSzdvtRqTVtu39fn88Hvf7nVdG3XhNlsiXgLDjPHsRzykyky7I9/xR9rZt+TUZfd8rB+/3u48ysooEj08gdbpIVupRC5Hycqy5KTquqPl2PCemA14Yk02LHh2jgiURhBqJslCuU3Lg3I1EXR6obTbmdUjXdWu9kmvEwQ4FziF1ft4itb2maRzDC2/Utu7XYh9fr5fZEazT1tp8x+1WXhuQhSazyu5DS8h1Xd9uN+qYvAmtaRpHQ6Wlei6qrmt+2VDf99Kduq6t2xdVCWt3xc1ZRr3siZ7upa5hrAtA5ssx6K1GapQ4Ps5wZLM7AKlnF7IjBp9H6nSf7vF4qPmyaZqu6x6Ph2Os8fQwNKkry3nsMw+UweY6upmFzqxdqIzjKEdVGq/XEsvaFRJZ610rR+Z9PB7zPD+fTykCUbvj4kRaQsfTNKlXijZNc7vdzFlK5rWabZ7suo6KUgO6LCqv46Ck7t8sSeq6rruu6/t+GIZNhcdxZJIgOJAdnK8/6Y2Ja6W9Xi/Z7InpyQAzjmZ7MM9YRxvZpM0s1rs3Zu04469AaFLfF1Bao7WOZv49RY6lhJuMwm3bKg7mhZu1d+7K1kjL+bI70CzgGDnlAC6LUsdt2651ancJfOG9qQ+1DVWv+silucPHyajMr4wz/k03nZQg9XRicYIlp5J6aH9Ck3po+1MrXw7TanxMzdRS7QlK6qWKBr8SVyA0qSfuvr95kmX9cyHlFRRIhNSvIHUKPoLUU4hCojaA1KMHBqQePQQw4OsKgNQ9JQWpewp1wWQg9UsFHaR+qXB/5ixI/TO9AqQGqQcQFUVGVgCk7hkAkLqnUBdMBlK/VNBB6pcK92fOgtQ/0ytAapB6AFFRZGQFQOqeAQCpewp1wWQg9UsFHaR+qXB/5ixI/TO9AqQGqQcQFUVGVgCk7hkAkLqnUBdMBlK/VNBB6pcK92fOgtQ/0ytAapB6AFFRZGQFQOqeAQCpewp1wWQg9UsFHaR+qXB/5ixI/TO9AqQGqQcQFUVGVgCk7hkAkLqnUBdMBlK/VNBB6pcK92fOyldU3G63zzIj9TcUAKl/Q0WUkZYCIHWfeKh3cMrXEfhkR5qyFQCplx1f5R1IXQmCj/+rAL3kSK7oVFX1eDysrwWBZOEUAKmH0xYlx1IApL6pvHxHL43Dbdu637G6WSYSlKQASL2kaG76AlLflOhaCTbfNldV1bUUieotSD2q/Kg8iAIgdYes7jd00oqJIzu+uogCIPWLBJrcBKlfKtxwNjMFQOqZBQzmeigAUvcQCUmggEsBkLpLneK+A6kXF1I4VJACIPWCgglXfisAUkdTgAIHFQCpHxQwr+wg9bziBWuvpQBI/Vrxvoa3IPVrxBleBlQApB5Q3PSKBqmnFxNYBAV+FACp/yiB/8tRAKReTizhSSQFQOqRhI9TLUg9ju6oFQr4KABS91EJafJSAKSeV7xgbYIKgNQTDEo4k0Dq4bRFyVDgqAIg9aMKIn96CoDU04sJLMpMAZB6ZgE7Zi5I/Zh+yA0FQioAUg+pLsqOowBIPY7uqLUgBUDqBQVz2xWQ+rZGSAEFYikAUo+lPOoNpwBIPZy2KPkiCoDULxJochOkfqlww9nMFACpZxYwmOuhAEjdQyQkgQIuBUDqLnWK+w6kXlxI4VBBCoDUCwomXPmtAEgdTQEKHFQApH5QwLyyg9TzihesvZYCIPVrxfsa3oLUrxFneBlQAZB6QHHTKxqknl5MYBEU+FEApP6jBP4vRwGQejmxhCeRFACpRxI+TrUg9Ti6o1Yo4KMASN1HJaTJSwGQel7xgrUJKgBSTzAo4UwCqYfTFiVDgaMKgNSPKoj86SkAUk8vJrAoMwVA6pkF7Ji5IPVj+iE3FAipAEg9pLooO44CIPU4uqPWghQAqRcUzG1XQOrbGiEFFIilAEg9lvKoN5wCIPVw2qLkiygAUr9IoMlNkPoH4e66rgr8N47jBwY5k47jGNjYqus6pwn48qgCIPWjCiJ/egqEJvXH4/GtoS8F8Z7PZ9M0KVgCG9JRAKSeTixOsASk/rHI4ziaM0HTNJ33X13XciJpmmYYhvf7/bEpHhmmaXq9Xm3byhqr6n8h2/PPzNv3/TiO8zx71I8khxQAqR+SD5mTVCA0qbPTr9fLHGzd417TNHKo5KIiHpBJX1zEiegLqv6WAiD1bymZRTkg9Z1hUrD+eDz8C1Jr89M0+efdl3KeZzVj+Zej1ub7vvfPi5QHFQCpHxQQ2RNU4DRSX5bl9XpJ8vYZqKdput1ulCv6egTbj4E3wZYc0SSQekTxz68apL5Tc8WvPhMA1yRJ/bTbmrLSqqrYmM0D5ekwDJtZkOBbCoDUv6UkyklHgTNJfZ7nT0mdhCJYj76SLcftE9Z00mkksMStAEjdrU9h34LU9wd03wSwLIscfE/b6q1uAvi7rUg9+tTlb3kBKUHqBQQRLigFziT1ZVn2DdTv97uqqrjDHdnA9n+0HqQ0x8fCFACpFxZQtzsgdbc+rm95AK2q6qMxFKTukhXfCQVA6kIMHBaiQBakvixLXddxSb3veznL1HVdSAuAG4cVAKkfljCnAkDq+6Mlx1CQ+n4dkXNdAZD6ujb4JlcFciH12+0WkdTVvh2abrD5MNdG/227QerfVjTp8kDq+8MDUt+vHXL6KQBS99MJqXJSIBdSj6sp7Vfsuk4+DKBt27hWofZEFACpJxKIc8wAqe/XGaS+Xzvk9FMApO6nE1LlpABI3Sda9HDGYRjUT4wiLvP7mI005ygAUj9H50RqAanvDwRIfb92yOmnAEjdTyekykkBkPpmtIZhqKqKngw2TZOca/C4xk31rpAApH6FKLOPIHWW4uMDOXpin/rH8iGDhwKnkbpat5Nt231sbfnjOPZ9L385Xdd113XP53PtSXOetcgyzSxkzKYvJLx6qJFZGiUzz6sza2ucblP5uSLuZFy4NdlpT47yaKofJEmc1B+//j7wJ0BSet8cdy5+vju1vbVOFMAQFJmoAiD1RAMTxiyQ+n5d5YTNQ6pPcXLSPW2uVfjiYyelUUDD6OBfAlLuVuA0Ul+WZZqm+/1OrbrrOuIV+a98fWPbttaWMM8zN++2bSm74oy1X8VN02Q+7OL1ein15nl+Pp+y99V1PQyDekmN+X7Kvu9NxHm/3+otvLfbTb0w2NMwZSd9fL/fLAhrq8p/v99KInqLsPJI9sSu66z6W21I7WTipE6NP6JoHGhuAHyGmtBH001ER1B1OAVA6uG0TbBkkPr+oEhW+GjolDM3SH1/AC6Q80xSJzkJ1q3tWbZbE6CXZZnnmalX3aN/v9/yh3EOyuQSqqpaY/plWSTa3u93a1vg9zvyRgJrMvXUasYjlVheqDgMU7noEkiOFebVAmVRVymmU/wwEKWtWWPiZ1ImdWoM1vZ/mqrUElSUZfPD4xpPi0WyFYHUkw1NCMNA6vtVlbPvRyO7JB6Q+v4AXCDn+aROm2Kt7Vm2WytqS9Y0g0Nbb6nX3G43MwGd2ayFksl7RFZrl2WRK5Hujib78kHDrNl9ylfvRKvrWl0zkMsFPP0jTVKfpmkYBrqeXGtR1uB+9yTvSlc3XmT3cV/EftcelJamAiD1NOMSyCqQ+n5h5ez70cguWcQNEPuNM3JKsqmqyvh+9YTEHd5cu5oaX3xVgfNJnd7paG3Pst0qiCSn5aq5KQMvCVdV5VgUlLVYrweoZNmerQv8+0jdwcGehpmOq9dkWhPQyWmapIbyeobWek18d5SW7FcRSV0O2o5ja/s/R0+6qWXOC/M8y7bhaKjn2Ila4ioAUo+r/8m1g9T3Cy4H+o9GdjnlmyPyfoOcOSXZgNSdUiX0ZbKkbtWISWINxDmBowXK3uFJ6mvJ5EWmu6NxX3Yk8zTMqgyX73CcMqqlU7oI4W1Fa55aK032ZERSb5qmW/mTjfOj8fyLOjOOW7dXyXtWWDT5ouw5FgVSzzFqu20Gqe+WbpGz70cju5zyHWSw3zJbTpC6TZXUz+VF6rR5gH7faVVWtnxrArUDxAGmsj2vJcuR1NUW/KZp5nl2/HhgTcaUz0ckdfdAPY4j8bo7WTht5cMZzVp4YwxNPWoju5keZwpWAKRecHBN10Dqpia+Z0Dqvkoh3V4F8iL1TS9B6ptr6vTDXLm+S6Kddkm/GcTjCZIldd4xFYvU6WejjtplD6qqau3XycdjhBISVwCknniAvmseSH2/niD1/dohp58C55M6rdtZV6klJfiZ/zvVPM/DMMiHujiAVdZiNYMKLXhNfVkW+dQa2tZv/WHAR1FIJ3HKpL4sS9M0DlYOJyPfAnLEWjWMKHaGUwAl+ysAUvfXqoCUIPX9QQSp79cOOf0UOJ/UCResiCwZ2s/8/336Cm+u7bpOPmlurQRZi9UMylg2qas9MIX9fDBxUo/1PHVq+Zt7WmQnWvtByFrnwvliFACpFxNKH0dA6j4q2dOA1O264Oz3FDif1OmlQtZVPcnQmy4Ow0BIQSuUdJvepwSZRnYxx/Ea0PMipSOv+sqxycRhGL2B9X6/rz2FRtayKR0l4B8XUt6SVk8TJ3V6XZdnmL6VTO1Blw3GfWz97em3rEI5ySoAUk82NCEMA6nvV1UOoB/No3LKd5DBfstsOeUapGPvgZlV4c4aFZkZcea4AueTet/3awt1st06XBvHkRjd/GmpTwkyTd/38iWp8lgmW2uTsunSBYMsQR5zX3b0R1kjG3a/39WunqZpTHu4fP+up97HVNKzPhIndUfbDvcV3XpyPJpGPrFGNqfC7reEU7iwkkHqhQXU7Q5I3a2P61s5XILUXUrhu70KnE/qbduu0apE1TWH6CklVVV1XWcuzPuUINOYyMv1yivPtWSS1NecogK5LzuSOQybpkl+W1WVWlzn8j1JfZ7npmnqupavYqXnwLAC+R6A1FXs+P6JajYqGX+UraKkSzh2EAebCoDUNyUqKQFIfX805ewLUt+vI3KuK3AyqdPLidYas4RRq8m8Jb1tWxPT1RMYrSWoNGsIvixLUqROvkh9mqaRDsqxQp5fOyYUe71ehOyc/X6/r2XJ6DxIXQWLGrNqMyqN/CgvQauq2tzaLvPiuAwFQOplxNHTC5C6p1CWZDx9VlW1BjeWbMsiZ3THGp417+6Tkmw8F/aoLjUrOOBpt23IuKbAyaROj3NWrzFn22S75ZN8INvJ2t5ZdwlUlEzjaGyyPa8lkya5Oxr3ZUeyTcPUczmkVVy+T9ejnwowlEsvylhAzYvUH48Hx4Jb+3cPaLfYWq+x1qX2XFkvjK0ZcbIMBUDqZcTR0wuQuqdQlmRy9gWpWwTCqcMKnEzqt9vNsbAnUdX0jBfUHTTpLoHKlGkk7KoaEyR1uiPBw4IcE/jkJqnT9nS1+Zj3FJXxxMaMSJ32paxdu6o2ue8jXR6v/ThkrUz1LlvZ2Nay4HxJCoDUS4rmpi8g9U2JVhPI2fejgVKyiGMNjyp+//pbNcL7C0k2m7ggSy1vSU96l/jxmaROT59wLB/KdmvqJr9dI2yZxiyBzsg0a+WkuftFkfrz+WQf5VjBJ80D3p6u0FDtgbndbmbejM5kROqOa9dvjczU4D+aQSjWHz2ucZ7ncRyx9J5RN3GbClJ361PYtyD1/QGVs+9H46y8cekmdaYW6+/zPjJ9N6k77ul/ZAAS71DgTFKnFuJ46yG3RuuqufzWunGWNnVwr2FoUDf9ZTl5kbrqKZK22Wv3RTJtT1eCULNRF8yePz3c0eROyJILqdO6tfXalVvpwZGZw+rod2sRkXdaqqqyNhvK+3q96K235uOY1grH+cQVAKknHqDvmgdS36knj7A0B1vRZK1oOW07NhsospFLdGslO87z1EK1+08MCvEd84Gjdny1T4HTSP39ftd17W7GsgmZDK24QV67juPYdV1d13IV8Pl8zvN8u91Upe5aWEZZnayLE/Cb4anBOy6J1Vq4LEEeuw2b59lxBS67vCxTHlN/d6yXy/1FdV37d2FZSwrHEUndit1WTXh7ibziopRfHJmpzTgap9U2OqnmoLqu+epX5SJMp0b46TYbVRQ+JqIASD2RQJxjBkh9p86KXx3ArSpQw2tVVWszrqpiDUdU+daP/BQwJgZ/4JaAgucMWOUNd/IcUp+mqW3bTfiT873ZfsxXt9DDoYnOaelRtaWqqsynxLhrYaklFq/hlyQqRw9Va+E+uKMuVEhA7lxKSfVkdGt/Zy5UJbO/6sLDKp1MnPLxmaSuguvzpMtpmviiyNpsvjUycznqZwmesTOnEnXRy+Vwy6QDPo+DfBUAqecbux2Wg9Q/Fm0cRx5h5QjYdd3r9bJOw1TH+/0ehkGCCGVvmmYYBnPlhidvSmaykY/p0zS9Xi+JNVRaXdePx8OBBbSvUT24l/L2fY8tjz7iH08TmtSnaXo8HtQm27aVLwNSx6ol1HVNzxCUPqoWS61FPhlJdRyF6ZKQuJWa2zzmeVbl0D19Rdh8x5/N6Pve7J7jOKrecbvdVGc0DZNaqcsPtR3CLL/rOln+PM/yiqLrOtPIZVnmeWZ8ZI/atjX1kRFJ8/gcUp/n2Tre0gtl5YuE5LEan63rI6qd7xiZx3FU0bzdbv6D6jzP1lGd3mNgNgl5L8t67ZFmO4FVDgVA6g5xyvsKpP5BTNWUzPOleaAKNRc/zCx0RqEzURRRtSpz86N/peZs5Onpvpu2m5YjASsQlNQV7661Sfd51XjGcWSmr39tp1FUSk2L3hgq2dqzFnfLJGM2/SJ5NzsIJXMbRt/S3YPH4yGddZvKe/2tydQ44GkqN5vED0KT+mYD8IkppbFeNdEPmutff6r9+yhvjTibtFmgp3eyCb3fb6pUXSX6WIs0aSoAUk8zLoGsAqkHEhbFQoEvKHAaqXddZ72xo3wYx3EYBokam2ChSsBHKBCa1KEwFCheAZB68SGWDoLUpRo4hgJpKXAOqe+4fc8bAEDqabWYHKwBqecQJdiYtAIg9aTD823jQOrfVhTlQYHvKXACqa/9HHPTCXr6Ckh9UygkUAqA1JUg+AgFPlUApP6pYlmnB6lnHT4YX7gCJ5C63Cz+kZr0cEOQ+keiIfGyLCB1NAMocFABkPpBAfPKDlLPK16w9loKhCb1g78J7roOpH6tFvkNb0Hq31ARZVxaAZD6pcIPUr9UuOFsZgqEJvWDnE1PcsxMU5gbWwGQeuwIoP7sFQCpZx/CTxwAqX+iFtJCgXMVCErq57qC2qDAbwVA6mgKUOCgAiD1gwLmlR2knle8YO21FACpXyve1/AWpH6NOMPLgAqA1AOKm17RIPX0YgKLoMCPAiD1HyXwfzkKgNTLiSU8iaQASD2S8HGqBanH0R21QgEfBUDqPiohTV4KgNTzihesTVABkHqCQQlnEkg9nLYoGQocVQCkflRB5E9PAZB6ejGBRZkpAFLPLGDHzAWpH9MPuaFASAVA6iHVRdlxFACpx9EdtRakAEi9oGBuuwJS39YIKaBALAVA6rGUR73hFACph9MWJV9EAZD6RQJNboLULxVuOJuZAiD1zAIGcz0UAKl7iIQkUMClAEjdpU5x34HUiwspHCpIAZB6QcGEK78VAKmjKUCBgwqA1A8KmFd2kHpe8YK111IApH6teF/DW5D6NeIMLwMqAFIPKG56RYPU04sJLIICPwqA1H+UwP/lKABSLyeW8CSSAiD1SMLHqRakHkd31AoFfBQAqfuohDR5KQBSzytesDZBBUDqCQYlnEkg9XDaomQocFQBkPpRBZE/PQVA6unFBBZlpgBIPbOAHTMXpH5MP+SGAiEVAKmHVBdlx1EApB5Hd9RakAIg9YKCue0KSH1bI6SAArEUAKnHUh71hlMApB5OW5R8EQVA6hcJNLkJUr9UuOFsZgqA1DMLGMz1UACk7iESkkABlwIgdZc6xX0HUi8upHCoIAVA6gUFE678VgCkjqYABQ4qAFI/KGBe2UHqecUL1l5LAZD6teJ9DW9B6teIM7wMqABIPaC46RUNUk8vJrAICvwoAFL/UQL/l6MASL2cWMKTSAqA1CMJH6dakHoc3VErFPBRAKTuoxLS5KUASD2veMHaBBUAqScYlHAmgdTDaYuSocBRBUDqRxVE/vQUAKmnFxNYlJkCIPXMAnbMXJD6Mf2QGwqEVACkHlJdlB1HAZB6HN1Ra0EKgNQLCua2KyD1bY2QAgrEUgCkHkt51BtOAZB6OG1R8kUUAKlfJNDkJkj9UuGGs5kpAFLPLGAw10MBkLqHSEgCBVwKgNRd6hT3HUi9uJDCoYIUAKkXFEy48lsBkDqaAhQ4qABI/aCAeWUHqecVL1h7LQVA6teK9zW8BalfI87wMqACIPWA4qZXNEg9vZjAIijwowBI/UcJ/F+OAiD1cmIJTyIpAFKPJHycakHqcXRHrVDARwGQuo9KSJOXAiD1vOIFaxNUAKSeYFDCmQRSD6ctSoYCRxUAqR9VEPnTUwCknl5MYFFmCoDUMwvYMXNB6sf0Q24oEFIBkHpIdVF2HAVA6nF0R60FKQBSLyiY266A1Lc1QgooEEsBkHos5VFvOAVA6uG0RckXUQCkfpFAk5sg9UuFG85mpgBIPbOAwVwPBUDqHiIhCRRwKQBSd6lT3Hcg9eJCCocKUgCkXlAw4cpvBUDqaApQ4KACIPWDAuaVHaSeV7xg7bUUAKlfK97X8Bakfo04w8uACoDUA4qbXtEg9fRiAougwI8CIPUfJfB/OQqA1MuJJTyJpABIPZLwcaoFqcfRHbVCAR8FQOo+KiFNXgqA1POKF6xNUAGQeoJBCWcSSD2ctigZChxVAKR+VEHkT08BkHp6MYFFmSkAUs8sYMfMBakf0w+5oUBIBUDqIdVF2XEUAKnH0R21FqQASL2gYG67AlLf1ggpoEAsBUDqsZRHveEUAKmH0xYlX0QBkPpFAk1ugtQvFW44m5kCIPXMAgZzPRQAqXuIhCRQwKUASN2lTnHfgdSLCykcKkgBkHpBwYQrvxUAqaMpQIGDCoDUDwqYV3aQel7xgrXXUgCkfq14X8NbkPo14gwvAyoAUg8obnpFg9TTiwksggI/CoDUf5TA/+UoAFIvJ5bwJJICIPVIwsepFqQeR3fUCgV8FACp+6iENHkpAFLPK16wNkEFQOoJBiWcSSD1cNqiZChwVAGQ+lEFkT89BUDq6cUEFmWmAEg9s4AdMxekfkw/5IYCIRUAqYdUF2XHUQCkHkd31FqQAiD1goK57QpIfVsjpIACsRQAqcdSHvWGUwCkHk5blHwRBUDqFwk0uQlSv1S44WxmCoDUMwsYzPVQAKTuIRKSQAGXAiB1lzrFfQdSLy6kcKggBUDqBQUTrvxWAKSOpgAFDioAUj8oYF7ZQep5xQvWXksBkPq14n0Nb0Hq14gzvAyoAEg9oLjpFQ1STy8msAgK/CgAUv9RAv+XowBIvZxYwpNICoDUIwkfp1qQehzdUSsU8FEApO6jEtLkpQBIPa94wdoEFQCpJxiUcCaB1MNpi5KhwFEFQOpHFUT+9BQAqacXE1iUmQIg9cwCdsxckPox/ZAbCoRUAKQeUl2UHUcBkHoc3VFrQQqA1AsK5rYrIPVtjZACCsRSAKQeS3nUG04BkHo4bVHyRRQAqV8k0OQmSP1S4YazmSkAUs8sYDDXQwGQuodISAIFXAqA1F3qFPcdSL24kMKhghQAqRcUTLjyWwGQOpoCFDioAEj9oIB5ZQep5xUvWHstBUDq14r3NbwFqV8jzvAyoAIg9YDiplc0SD29mMAiKPCjAEj9Rwn8X44CIPVyYglPIikAUo8kfJxqQepxdEetUMBHAZC6j0pIk5cCIPW84gVrE1QApJ5gUMKZBFIPpy1KhgJHFQCpH1UQ+dNTAKSeXkxgUWYKgNQzC9gxc0Hqx/RDbigQUgGQekh1UXYcBUDqcXRHrQUpAFIvKJjbroDUtzVCCigQSwGQeizlUW84BUDq4bRFyRdRAKR+kUCTmyD1S4UbzmamAEg9s4DBXA8FQOoeIiEJFHApAFJ3qVPcdyD14kIKhwpSAKReUDDhym8FQOpoClDgoAIg9YMC5pUdpJ5XvGDttRQAqV8r3tfwFqR+jTjDy4AKgNQDipte0SD19GICi6DAjwIg9R8l8H85CoDUy4klPImkAEg9kvBxqgWpx9EdtUIBHwVA6j4qIU1eCoDU84oXrE1QAZB6gkEJZxJIPZy2KBkKHFUApH5UQeRPTwGQenoxgUWZKQBSzyxgx8wFqR/TD7mhQEgFQOoh1UXZcRQAqcfRHbUWpABIvaBgbrsCUt/WCCmgQCwFQOqxlEe94RQAqYfTFiVfRAGQ+kUCTW6C1C8VbjibmQIg9cwCBnM9FACpe4iEJFDApQBI3aVOcd+B1IsLKRwqSAGQekHBhCu/FQCpoylAgYMKgNQPCphXdpB6XvGCtddSAKR+rXhfw1uQ+jXiDC8DKgBSD7T+TkEAAADuSURBVChuekWD1NOLCSyCAj8KgNR/lMD/5SgAUi8nlvAkkgIg9UjCx6kWpB5Hd9QKBXwUAKn7qIQ0eSkAUs8rXrA2QQVA6gkGJZxJIPVw2qJkKHBUAZD6UQWRPz0FQOrpxQQWZaYASD2zgB0z107q/1+ef//xH/9R/fz9y7/8S55OwGoo8EcF/vZv//anRVfDMPzxCxxBgWwV+O///m9u1f/wD/+QrR8wHApEU+A///M/uRP90z/9UzQ7UPEpCvz5n/85hxsHUAAKQAEoAAWgABSAAlAACkABKAAFoAAUgAJQAApAASgABaCAnwL/P3OYayLMebjvAAAAAElFTkSuQmCC;" vertex="1" parent="1">
          <mxGeometry x="80" y="1220" width="995" height="700" as="geometry" />
        </mxCell>
        <mxCell id="FgYqGhc_kZCPzOwcQ5mJ-10" value="&lt;span style=&quot;font-size: 48px;&quot;&gt;Добавить дисциплину &quot;Анализ алгоритмов&quot;&lt;/span&gt;" style="text;html=1;align=center;verticalAlign=middle;whiteSpace=wrap;rounded=0;fontStyle=1;fontFamily=Times New Roman;" vertex="1" parent="1">
          <mxGeometry x="730" y="1930" width="340" height="218" as="geometry" />
        </mxCell>
        <mxCell id="FgYqGhc_kZCPzOwcQ5mJ-15" value="" style="endArrow=classic;html=1;rounded=0;strokeWidth=8;" edge="1" parent="1" target="FgYqGhc_kZCPzOwcQ5mJ-14">
          <mxGeometry width="50" height="50" relative="1" as="geometry">
            <mxPoint x="576" y="2020" as="sourcePoint" />
            <mxPoint x="576.39" y="1920" as="targetPoint" />
          </mxGeometry>
        </mxCell>
        <mxCell id="FgYqGhc_kZCPzOwcQ5mJ-17" style="edgeStyle=orthogonalEdgeStyle;rounded=0;orthogonalLoop=1;jettySize=auto;html=1;entryX=1.001;entryY=0.554;entryDx=0;entryDy=0;entryPerimeter=0;strokeWidth=10;exitX=0.006;exitY=0.394;exitDx=0;exitDy=0;exitPerimeter=0;" edge="1" parent="1" source="FgYqGhc_kZCPzOwcQ5mJ-10" target="FgYqGhc_kZCPzOwcQ5mJ-14">
          <mxGeometry relative="1" as="geometry" />
        </mxCell>
        <mxCell id="FgYqGhc_kZCPzOwcQ5mJ-14" value="" style="rounded=0;whiteSpace=wrap;html=1;strokeWidth=12;fillColor=none;" vertex="1" parent="1">
          <mxGeometry x="387" y="1723" width="243" height="190" as="geometry" />
        </mxCell>
      </root>
    </mxGraphModel>
  </diagram>
</mxfile>
